/* XPM */
static char *f86663a3095e4d94ab6bee33e1a005b1hYlpVR5zCDKahdCP[] = {
/* columns rows colors chars-per-pixel */
"64 64 255 2 ",
"   c #000000",
".  c #17033C",
"X  c #2A0237",
"o  c #46002B",
"O  c #066911",
"+  c #0F5933",
"@  c #036A28",
"#  c #1F6020",
"$  c #006236",
"%  c #686D32",
"&  c #180342",
"*  c #2A0051",
"=  c #510046",
"-  c #7A0762",
";  c #035E4B",
":  c #055B50",
">  c #186761",
",  c #69436F",
"<  c #BF2427",
"1  c #BD4C05",
"2  c #C24C09",
"3  c #C6540D",
"4  c #DE601D",
"5  c #EB7717",
"6  c #F37B1B",
"7  c #DE6C25",
"8  c #E7782D",
"9  c #FD762B",
"0  c #F8792A",
"q  c #F97B33",
"w  c #FE7F3C",
"e  c #94006A",
"r  c #AA2867",
"t  c #DF1D60",
"y  c #F00F71",
"u  c #91556A",
"i  c #FE7C47",
"p  c #FF6956",
"a  c #FE7D56",
"s  c #E64F61",
"d  c #FD6B6C",
"f  c #F47676",
"g  c #3CBA00",
"h  c #18912C",
"j  c #31B438",
"k  c #4DB805",
"l  c #64AF03",
"z  c #519D22",
"x  c #2DC60A",
"c  c #33C509",
"v  c #34C419",
"b  c #3BC620",
"n  c #5BCF0D",
"m  c #1D9E46",
"M  c #569C59",
"N  c #7EE975",
"B  c #DB900F",
"V  c #E98A08",
"C  c #F48418",
"Z  c #EE9012",
"A  c #F9AB0D",
"S  c #FEA81A",
"D  c #F4862C",
"F  c #F4902D",
"G  c #F58335",
"H  c #FC8235",
"J  c #FE813C",
"K  c #F98A3A",
"L  c #FC9A36",
"P  c #FD933D",
"I  c #FE9A3B",
"U  c #FBA625",
"Y  c #FEAB23",
"T  c #FEB927",
"R  c #FBAC38",
"E  c #FFB836",
"W  c #9CCA05",
"Q  c #FFD603",
"!  c #FED901",
"~  c #F9DA07",
"^  c #FFD40B",
"/  c #FFCA18",
"(  c #F4D010",
")  c #FED517",
"_  c #C2EA1E",
"`  c #D7E312",
"'  c #E5E313",
"]  c #D3D927",
"[  c #FFC426",
"{  c #F7D32D",
"}  c #EBE32B",
"|  c #AF975F",
" . c #94AD6D",
".. c #D08B4D",
"X. c #FD8241",
"o. c #F98643",
"O. c #FE9445",
"+. c #FE9B48",
"@. c #E98C50",
"#. c #FE965A",
"$. c #FFA346",
"%. c #FFAC45",
"&. c #FFA44E",
"*. c #FFAA4E",
"=. c #FFB244",
"-. c #FFB349",
";. c #FFA551",
":. c #FFAA52",
">. c #FFAC5A",
",. c #F4B458",
"<. c #FF9469",
"1. c #F58F74",
"2. c #D3A26E",
"3. c #FDAD6A",
"4. c #F4D250",
"5. c #F0DB5D",
"6. c #CCD574",
"7. c #1D2493",
"8. c #69169B",
"9. c #22539A",
"0. c #08758C",
"q. c #094AB3",
"w. c #0072BA",
"e. c #6B67BA",
"r. c #1A1FD5",
"t. c #032DD2",
"y. c #012BE7",
"u. c #012AEC",
"i. c #023BE9",
"p. c #0227F4",
"a. c #0028F3",
"s. c #0829F8",
"d. c #033DF0",
"f. c #412AE3",
"g. c #0751C9",
"h. c #0556D7",
"j. c #0255DE",
"k. c #0359DD",
"l. c #006BCF",
"z. c #2A62D7",
"x. c #0041E5",
"c. c #0356E1",
"v. c #0857E4",
"b. c #1052F2",
"n. c #186FEE",
"m. c #247FF5",
"M. c #2C7CFE",
"N. c #3178F5",
"B. c #506BE5",
"V. c #850A8E",
"C. c #9A249E",
"Z. c #B0358C",
"A. c #8803AA",
"S. c #8A02AB",
"D. c #8F01AD",
"F. c #9500B6",
"G. c #BA05A2",
"H. c #A92FB5",
"J. c #D1148D",
"K. c #E90E8A",
"L. c #FD028D",
"P. c #F5098C",
"I. c #E90999",
"U. c #FE0092",
"Y. c #F40699",
"T. c #DA12AD",
"R. c #EB06B0",
"E. c #EA31A8",
"W. c #9151A2",
"Q. c #F5728E",
"!. c #D65FA5",
"~. c #F872AD",
"^. c #FE69B8",
"/. c #FE6ABD",
"(. c #B104D0",
"). c #9233CE",
"_. c #A82DCA",
"`. c #AC32CE",
"'. c #A52AD7",
"]. c #B827D4",
"[. c #9E28E2",
"{. c #A32DE4",
"}. c #AA2CE4",
"|. c #A22DEA",
" X c #A630E9",
".X c #CF16C7",
"XX c #E802D1",
"oX c #CF27CB",
"OX c #D00DE5",
"+X c #DA05F7",
"@X c #E302F3",
"#X c #A14AD3",
"$X c #CF4CCF",
"%X c #F95AC7",
"&X c #EC6DC4",
"*X c #FC6AC6",
"=X c #F769D6",
"-X c #DE5BE7",
";X c #0282A0",
":X c #76A99F",
">X c #19F5BB",
",X c #26F5AA",
"<X c #28F5AA",
"1X c #30EBB7",
"2X c #5CD79B",
"3X c #098CD6",
"4X c #10B3D5",
"5X c #1983EA",
"6X c #1392E9",
"7X c #3382E5",
"8X c #2682F7",
"9X c #25B2F2",
"0X c #68B3E0",
"qX c #07C9D4",
"wX c #0AD4D6",
"eX c #34D7D4",
"rX c #02FFCC",
"tX c #09FBCA",
"yX c #14F7C9",
"uX c #0FEDDA",
"iX c #08F9D5",
"pX c #28EDCE",
"aX c #36EAC8",
"sX c #1AD9EC",
"dX c #2ED7FB",
"fX c #19E7EB",
"gX c #13F0E3",
"hX c #25E3EE",
"jX c #51D5C8",
"kX c #65D7C6",
"lX c #46E5CC",
"zX c #5AC1E9",
"xX c #74FBE9",
"cX c #998FA1",
"vX c #EB9593",
"bX c #F9B794",
"nX c #BAC38C",
"mX c #FBD28D",
"MX c #F7E7A8",
"NX c #B3BEDA",
"BX c #87B3F1",
"VX c #E99EEC",
"CX c #93F2D7",
"ZX c #8EFAEE",
"AX c #A7FAF7",
"SX c #B7FFFF",
"DX c #E2E1DB",
"FX c #C8FFFF",
"GX c #DDFFFF",
"HX c #FFFFE7",
"JX c #E4FFFF",
"KX c #ECFFFF",
"LX c #FFFCF7",
"PX c #F6FCFE",
"IX c #F9FAFE",
/* pixels */
"    > 0.' m k @.=X=X$X|.|.|.|.&X'._.^.*X{.. { ).[.|.|.|.{.|.*X'.vX}.'.'.'._.~.Q.}.vXO.1.1.!.{.$X<.L i a Q.i i w w i i a i i a C.",
"    2.0.5.j # vX X=X-X|.|.|.|.|.|.{.{.=X_.& 5.).'.[.|.'. X}. XvX|.|.[.|.[.|.'.~.VXvX}.}. X!.|.$X=XE a <.^.H J p w J t J f a i H.",
"    , > 0.z z !. X|.|.|.|.|.|.|.|.|.|.|.'.|.C.$X=X'.$X-X$X$X`.$X}.$X-X]. X$X X{. X|.|. X X#X}. X|.!.[.|.Q.Q.H I =.w H f $X*X/./.",
"      ;X> # 6.{.=X{. X X|.|.-X-X|.|.|.|.|.|.&X_._.=X/.*X*X/.{.=X$X].=X=X=X`.=X-X|.'.=X=X=X X X X|.|.|.|.'.*XQ.K D P i /._.'.'.'.",
"      vX> ] J a J w J H w w w <.=X=X=X=X=X^.1.<.X.J J w J X.o.w o.o.<.1.1.1.1.vXX.X.X.X.X.X.i #.<.<.#.#.#.#.#.#.X.H.*X}.[.|.|.|.",
"      #.> ~ H J J J J i i w w H <.<.1.1.<.<.J J J X.J w w w G G w w K q o.X.J J X.o.X.J J w w w G '.`.`.`.).<.<.H.$X}.|.{.|.[.|.",
"      J <.! J J J w J J J w J w J J J J J J J J J J X.J Q.Q.Q.Q.Q.Q.Q.&X|.|.{.|.H.Z.Z.J r |.|.[.|.[.|.{.|.[. X|. X}.`.`./.*X=X}.",
"      J o.F J J J J J w J J J J J J D / J w J J J J J J f f f f f f f f f f f f X.J K X.o.f f f f f f _.|.|.|.|.vXvX>.<.>.>.<.3.",
"      J J X.J J w J J J J J J J J J ..) F H J J J X.w w w J w J w G i J J J w J w w J X.w w w i J J i a  XZ.>.>.J X.w H H H H =.",
"      J J J J J J J J J J J J w J J w + ' H J J J Z Z J J J J J w w J J w w J J J J J w w 9 w d d R.Y.R.XXR.Q.p J J J J J J J J ",
"      J J J J J w J J J J J J J J J J + k [ J J T l Z w X.w J J J J J w w w J X.J J J J H p y XXXX@XOXF.F.F.OXXXi w w H w w J J ",
"      J %.w H K J *.J H I J I w =.J H + c ^ J J l g E H I J P H H %.J G w X.=.J J J *.w H L.XX+X+XF.S.A.8.D.F.@XY.s q %.J H %.H ",
"      J w $.w X.$.w I J J &.w G J $.X.J j g T ~ c ) J L Z T Z Z O.J +.J H $.X.d d vXd d I.XXOX(.S.S.S.S.8.A.A.D.OXL.vXd w q H %.",
"      D =.%.D H R =.L q I T } ' ` ~ D G j x ` g c ) ) ' k g g ~ S R %.D H <.eXR.+X@X+X@X+X(.S.S.S.S.S.V.bX-.>.8.- 8.V.t w G E %.",
"      J L I H I P +.P w I z @ h g W W T j x ` c n Q W c ^ A S / / I I H L #.2XI.A.A.D.+X(.S.S.S.S.S.V.>.4.3.5.3.3.3.3.P I H I I ",
"      K =.*.D D %.=.o.q W # ,...$ @ v ' j x ' g O ` x ' L =.O.D L R %.K ..1X,.X.P.D.A.D.D.A.S.S.S.S.>.R mX:.:.G J O.=.%.D H -.-.",
"5.    F -.*.D D %.*.L @.% =.L D %.+ $ c : x ` c O x c A +.=.L 0 L =.R D | 2XE D t S.A.A.A.A.A.A.S.(.MXmXD %.-.D G I =.*.D 8 -.-.",
"      [ Y Y T [ Y Y T [ T Y T T S R M g ; x ` g j g ' Q T Y T [ T S U 4.N Y U / Y..XD.A.A.A.!.G.S.(.t R [ Y Y T [ T Y Y [ [ Y Y ",
"      <X<X,X,X,X,X,X,X,X<X<X<X<X<X<X1X$ @ @ ` O x k 2X,X<X<X<X,X,X,X,X>X<X<X<X<XOX+XA.A.A.!.;.G.S.XX1X<X,X,X,X,X,X,X,X,X,X,X,X,X",
"      tXrXrXrXrXrXrXrXrXrXrXrXrXrXrXrX; O ; _ + c ' ,XrXrXrXrXrXrXrXrXrXrXtXtX0XOXD.A.A.8.R MXG.F.T.rXrXrXrXrXrXrXrXrXrXrXrXrXrX",
"      qXiXgXwXqXiXiXuXqXuXiXwXqXiXiXqX0.j $ @ m _ N iXwXuXiXwXqXwXuXgXwXqXuXiX#XF.A.S.V.:.nXlXG.+XW.uXiXqXuXiXqXqXuXiXiXqXqXuXiX",
"      m.5X3X7X6.6.n.9Xm.9X5X8XhX3X5XM.fXj $ @ j ( 3X3XM.m.5XqX8XqX5X5XhX8X6X5XR.D.D.V.3.mXN.N.T.R.9Xm.5X8X3Xn.m.hX8Xl.3X8XhX6X5X",
"      n.M.] M , *Xz.M.M.m.M.M.M.M.M.M.m.> ; z N M M.BXM.M.M.M.M.8X8X6XqXM.B.R.+XF.u cXm.M.M.9XeX9X9Xn.n.4Xn.M.M.M.9X9X8XM.M.M.M.",
"      5.} k P.^.`.B.M.5XuXfXM.M.M.c.g.B.9 + 9 / e.q.HXBXj.j.k.5X9XM.8XM.m.kXOXOXMXDX8Xv.g.n.sX9XM.8X8X8XM.M.j.M.M.M.M.M.M.M.M.M.",
"      ] $ r U._.H.B.8XM.M.v.j.j.j.v.9.9 C 0 ^ Q @...) NXM.j.k.h.8X8XfX8XB.Y.pX9.B.h.dXk.k.l.hXM.N.9XuXrX6X6X6XM.M.M.M.M.M.M.M.M.",
"9.9.nX# r - T.*X&Xg.c.c.v.j.v.j.cXg...[ C [ ! Q ..{ ~ MXGXg.k.k.n.6XiX8X_.G.pXeXz.k.k.M.N.rXn.n.v.h.l.w.w.w.w.k.M.M.M.M.M.M.M.M.",
"j.k.6.r U.U.X J.^.z.c.c.c.c.j.v.8 q D Q MXKXKX8 { 8 KXMXbXN.8X8XqX6XrX8.R.).iXG.k.k.h.gXj.h.c.4Xg.v.k.v.v.j.k.c.j.j.j.M.M.j.j.v.",
"k.9.' J.J.Y.L.%X^.g.k.v.v.h.M.M.V C 6 / PXhXM.{ V F eX0XbXz.n.k.4Xw.uXI.A.9.eXJ.k.k.gXsXj.j.c.c.c.v.v.k.M.M.M.k.j.v.v.j.j.v.v.j.",
"k.4.l I.J.].U.%X^.N.M.M.M.M.N.M.^ Q T T 4.| 6.) C ) 6.6.bXq.c.k.4XeXzXS.8.rX8.H.dXsX3Xm.hX6Xj.c.v.k.k.k.j.c.k.c.c.c.c.c.j.M.M.M.",
"! ~ j Y.U.U.U.U.^.%Xc.j.j.c.h.g.^ Q [ ^ ~ 0 Q [ P.K.4.U mXq.g.gXrXrXiXJ.iXrXJ.C.rX8X6XgXM.M.M.n.k.c.j.v.c.j.c.j.j.j.j.c.j.j.j.c.",
"! l , ).].U.U.P.*X*XM.M.j.c.j.8 C C 9 ^ V 9 ^ y `.#XI.p HX4.BX5XrXrXrXuXrXrXeXaX;Xh.w.l.c.c.c.k.j.v.c.k.M.M.M.M.M.M.M.M.M.M.M.j.",
"! c r Y.Y.U.U.*XK.&Xc.M.M.j.j.9 9 ^ [ 6 0 ) 6 y |.|.|.S Y ~ BXg.4XrXrXrXtXrXC.rXh.k.j.c.c.c.c.j.c.j.c.j.c.c.j.c.c.j.j.j.j.M.M.M.",
"Q O Z.e - - e L.E., 7.7.q.x.x.9 ) ! Q Q C ! Q y . & {.p F Y BXq.wXgX6X6Xa.a.p.i.c.j.j.v.j.c.j.d.d.d.d.v.c.c.k.j.x.d.d.d.i.i.c.c.",
"( g r . 1.@.vXI.*X. @.1.. h.h.7.) 5 ! Q 9 Q Q y r < < p S 9 IXl.rXy.u.a.a.a.a.a.u.j.8XM.M.u.u.a.p.p.p.a.u.u.u.u.p.s.p.p.p.a.u.v.",
". . . jX|  .kX& & kX2X| > s.t.7.6 0 C Q [ 5 ^ 9 < t y A S 8 HXb.y.a.a.a.a.p.u.p.a.a.p.p.a.a.a.a.a.a.a.a.a.a.a.a.p.p.a.a.a.a.p.a.",
"% O e :XyX>X:X- e 2X2XpX> u.u u 6 A S S / ! U A Q ^ ) Q K 5.5.s.a.a.a.a.a.a.a.p.a.a.a.p.p.a.a.a.a.a.a.a.a.a.a.a.p.i.x.x.x.a.a.a.",
"~ x P.pXiXrXeXJ.J.pXiXrX;Xu.u 9 9 Q Q 6 ! ! C ^ Q 6 6 Q A ! 5.d.p.p.u.a.a.u.p.p.v.b.p.p.p.p.p.p.p.a.s.s.v.b.b.s.u.i.j.j.v.p.p.a.",
"' @ oX. eXpX& I.%X& pXeX> fXu 9 ) ) ~ ~././.^.~.V 6 6 5 E.^./.r.i.v.p.u.a.a.p.b.b.c.c.v.h.i.b.c.c.j.w.l.c.v.b.a.a.a.t.t.a.s.a.a.",
"} ; e e e e r Y.E.r W.cXNXpX2.9 / w ~.L.U.L.^.*XQ.Q Q U U.*X^.&Xz.b.x.x.i.i.i.u.a.i.c.h.iXl.c.c.j.c.w.g.d.p.p.a.a.k.yXyX3Xi.a.p.",
"} ; U.U.U.U.U.U.K.~.VXJXIXFXyX9 Q { ].L.U.U.L.%X^.t ^ y U.%X*X*Xe.h.j.j.j.v.j.b.a.a.u.t.SX4Xc.j.j.y.q.x.p.g.fXfXy.iXGXGXFXfXs.dX",
"' c U.e Y.U.J.:X:X%XcXbXxXxXMXCXs [.T.oXY.U.U.U.*Xs i H.U.U.U.*XB.s.s.s.i.sXx.x.s.6Xp.a.p.p.p.a.a.a.s.s.xXCXIXIXIXIXLXPXKXCXCXPX",
"' v U.L.U.L.& . . X ~...yXFXbX8 { f {.T.T.U.U.U.*X{ { vXU.U.U.%Xf.s.p.p.a.q.y.a.s.gXt.a.a.p.p.p.a.p.p.dXIXIXIXIXIXIXlXIXPXIXIXPX",
"} : U.e.Y.L.= o o * /.J | 2X2X0 ^ C Z. X].T.K.=XQ.) w B I.R.E.e.lXeXjXpXt.t.g.p.p.p.dXp.g.g.g.g.y.a.a.fXIXIXIXKXSXFXIXIXIXIXIXIX",
"} j U.J.L.L.y y y *X/.:.K o.| 2XQ Q ( ).|. X}.3.) ^ 0 Q }.|.VXIXIXIXIXJXpXfXtXu.p.y.sXsXtXFXSXtXfXfXsXuXIXIXKXlXFXGXIXIXPXPXIXIX",
"k g r U.].}.U.U.P.K./.*.;.w H <XQ ~ Z { { q { 6 ! ) 9 Q R { IXIXIXIXIXPXFXrXrXdXp.gXFXJXJXPXPXJXJXxXtXSXIXIX1XKXIXIXGXyXKXaXJXGX",
"g c r U.= = U.U.L.%X/.*.&.;.O.J V [ V [ C Z ! V E 0 ^ U Q Q bX>XGXIXIXIXKXkXlXsXaXPXPXPXPXIXIXIXIXIXpXZXIXIXtXSXIXPXGXrXlXAXyXyX",
"O ' + U.U.L.U.U.L.%X/.K *.;.J J ) 6 Q / 9 ! ! ! 9 / ! 9 Q MXbXSXCXPXPXIXIXPXPXFXKXIXIXGXaXIXPXPXIXIXpXAXPXPXSXtXJXPXpXrXpXrXrXrX",
"$ + ; U.U.}..XU.P.K./.H J ;.:.>.MX9 V Q 9 6 ! C 9 ! ! 9 S G LXPXxXPXPXIXIXIXIXIXIXIXKXaXJXPXIXIXIXIXaXaXSX>XpXSXyXyXrXrXrXrXrXrX",
"J ..: t P.J.J..XoXK.^.&.o.;.;.&.D Q E 9 ^ T C [ / 0 0 ^ u yXiXPXFXkXIXFXPXLXIXIXIXIXPXSXIXIXIXIXjXIXIXkXiXpXtXiXrXtX . . . . . .",
"J :.{ : J.P.Y.= = *X^.).O.J w *.:.K.Y.Y.L.L.L.L.L.L.L.L.:XyXyXtXZXIXKXAXyXpXJXIXIXPXKXyXFXJXKXIXaXtXtXrX1X>X>X>X..J J w J w w X.",
"w >.>.: $ J.R.T.T.J.-XH.O.G *.:.;.X.H.H.Y.L.L.L.U.L.L.U.J 2XCXAXrXFXlXpXSXrXrXFXFXSXSXSXaXyXaXIXPXCX1X2Xw w w w X.J J J J J J J ",
":.,.o.).).* ).).{.{.|.|.).o.q G :.H :.9 Z.].].].].].P.i H K ......yXyXtX>XyXyXrXyXrXrXtXyXxX1XZXpX@.J J J J J w J H >.:.:.J H :.",
":.:.:.C.W.e.* * ).).{. X|.>.;.;.>.q ;.^ V H $.*.D *.0 ~ &.8 :.H G w w 1Xw X.w 1Xw 1X1X1X1X1X1X1X..q J J J J J J q O.:.G :.>.:.q ",
"O.O.I W g % & & & 8.).{.).o.+.o.O.O.O.^ T G &.*.G *.0 Q P &.O.+.K O.J J w w J J w J w w J J J J J q i w O.O.w O.O.&.O.O.O.O.:.G ",
"G :.;.k $ ;.3.@.& & . . , ;.O.,.*.:.;.^ T q *.*.w *.0 ! :.6 *.:.*.:.:.J J J J J J w w w w J >.:.:.O.K :.;.:.J ;.:.P *.:.>.:.:.J ",
";.:.:.k $ i o.>.2.b T q H *.O.;.:.:.&.~ ~ R :.:.:.>.) Q B 2 >.1 D ;.J :.:.;.G q H H w q J :.&.*.G O.:.*.*.H G :.H ;.&.:.:.;.J :.",
"*.E [ k $ J O.K ..b ] T U R +.7 8 7 C Q Q ~ B 1 4 2 Z B B 2 3 7 8 G O.O.q :.O.:.:.:.O.*.:.K O.P J O.J ;.;.*.O.*.O.$.:.J O.J G O.",
"' g g c $ + :.:.j b c g g k B 1 2 2 1 1 1 1 D 1 J P 1 2 +.>.+.:.:.>.:.;.:.;.>.G ;.*.:.:.:.O.:.:.:.:.:.*.G *.;.;.*.:.;.:.:.:.:.:.",
"2 2 2 2 7 2 1 1 4 2 2 8 3 2 2 2 2 7 4 1 4 8 8 8 8 :.P J O.O.+.K +.O.0 P *.:.*.*.q O.O.O.O.+.O.+.K H *.*.:.&.O.q O.O.P O.O.K P P ",
"3 2 2 2 1 3 3 :.-.K >.0 w :.>.>.>.:.:.>.8 &.:.G &.*.9 P *.*.O.:.:.;.0 *.:.G ;.$.&.:.:.:.&.O.&.*.8 P *.G *.0 0 :.:.*.:.;.:.:.9 :.",
";.w 3 0 *.*.:.G *.*.*.:.*.;.;.H :.0 0 *.*.;.&.:.:.:.:.*.O.;.O.9 K *.*.&.:.:.:.*.&.;.H ;.:.0 0 *.*.*.D :.:.*.*.$.;.O.:.9 0 *.*.:.",
";.w ;.+.8 :.*.K *.D P G &.;.;.J *.q &.:.*.*.*.*.D ;.;.;.O.J :.G K *.*.;.*.&.q &.;.;.q G :.O.&.P *.*.K :.*.K ;.;.:.J :.H &.:.*.*.",
"*.*.;.*.:.*.:.G *.8 *.*.*.*.*.:.*.*.*.:.;.:.*.:.&.*.*.*.*.*.*.*.:.*.:.;.:.*.*.:.*.*.*.*.*.*.*.*.:.*.G :.*.*.*.*.*.:.&.*.*.:.*.;.",
"*.*.&.*.:.:.G :.*.*.*.0 &.*.*.*.*.*.*.;.K G :.*.*.;.&.*.*.*.*.*.*.:.K G *.*.*.&.*.*.*.*.&.*.*.*.&.K :.*.:.0 &.*.*.*.&.*.*.*.;.G "
};
