/* XPM */
static char *_57e82d3bc8648eea5b0097bde67d39ekDV8EmLXqzexOuKN[] = {
/* columns rows colors chars-per-pixel */
"64 64 7 1 ",
"  c #3CBCFC",
". c #6888FC",
"X c #00E8D8",
"o c #F0D0B0",
"O c #B8F8D8",
"+ c #A4E4FC",
"@ c gray99",
/* pixels */
"                                                                ",
"                                                                ",
"              +@@@@                                             ",
"     @@@     @@@@@@@+                                           ",
"     @@@+    @@@@@@@@                                           ",
"     @@+@@+ +@@@@@@@@                                           ",
"    +++@@@@@@@@@@@@@@                                           ",
"  @++++@@@@@@@@@@@@@@@                                          ",
"  ++++++@@+@@@@@@@@@@@@                                         ",
"  +++++++++@@@@@@@@@@@@@                                        ",
" @+++++++++@@@@@@@@@@@@@                                        ",
"@+++++++++++@@@@@@@@@@@@                                        ",
"+++++++++++++@@@@@@@@@@@@@+                                     ",
"+++++++++++++@@@@@@@@@@@@@@+                                    ",
"+++++@+@@@@@+@@@@+@@@@@@@@@@@@                                  ",
"+++++++@+@@@+++++@@@@@@@@@@@@@                                  ",
"++++++++++@@@++++@@@@@@@@@@@@@@                                 ",
"+++++++++++@@@@+++@@@@@@@@@@@@@                                 ",
"+++++++++++++@@@++++@@@@@@@@@@@                                +",
"+++++++++++++++@++++++++@@@@+@+                            @@@@@",
"++++++++++++++@@@@@+++++@@@@@+++@@@@+                    @@@@@@@",
"+++++++++++++++@+@@++++++@@@+++@@@@@@@@+                 @@@@@@@",
"+++++++++++++++++++@++++++++++@@@@@@@@@@+               +@@@@@@@",
"@@++++++++++++++++++++++++++++@@@@@@@@@@@             @@@@@@@@@@",
"@@@+++++++++++++++++++++++++++@@@@@@@@@@@@@        @@@@@@@@@@@@@",
"@@@@++++++++++ +++++++++++++++@@@@@@@@@@@@@@      @+@@@@++@@@@@@",
"@@@@+++++++++++ ++++++++++++++@@@@@@@@@@@@@@@    @@+@@@@++++@@@+",
"@@@@@@@@+  +  +   ++++++++++++++++@@@@@@@++@@@++@++++++++@@@@@@+",
"@@@@@@@@+++ ++ +     +++++++++++++@@@@@@++@@@@+++++++++++@@@@@@+",
"@@@@@@@@++           ++++++++++++++@++++++@+@@+++++++++++@@@@+@+",
"@@@@@@@@@+            +  +++++++++++@@@++@++@@@+++++++++++@@+++@",
"@@+@@+@@@@+          + ++ +++ +++++@@@+++++++@@@@++++++++++++@@+",
"@@++++@@@@@+             +    ++++++++++++++++++@@@++++++++++@@+",
"+++++++@@@@@+                   +++++++++++++++++@@+@+++++++++++",
"++ +++++++@@@+@+++                  +  +   +++++++++++++++++   +",
"+   +++++++++++++++                  ++ +    ++++++++++++++     ",
"                                                                ",
"................................................................",
"................................................................",
"................................................................",
"                                                                ",
"                                                                ",
"                                                                ",
"XXXXXXXXXXXXXXXXXXXXXXXXXXXXXXXXXXXXXXXXXXXXXXXXXXXXXXXXXXXXXXXX",
"                                                                ",
"XXXXXXXXXXXXXXXXXXXXXXXXXXXXXXXXXXXXXXXXXXXXXXXXXXXXXXXXXXXXXXXX",
"XXXXXXXXXXXXXXXXXXXXXXXXXXXXXXXXXXXXXXXXXXXXXXXXXXXXXXXXXXXXXXXX",
"XXXXXXXXXXXXXXXXXXXXXXXXXXXXXXXXXXXXXXXXXXXXXXXXXXXXXXXXXXXXXXXX",
"XXXXXXXXXXXXXXXXXXXXXXXXXXXXXXXXXXXXXXXXXXXXXXXXXXXXXXXXXXXXXXXX",
"XXXXXXXXXXXXXXXXXXXXXXXXXXXXXXXXXXXXXXXXXXXXXXXXXXXXXXXXXXXXXXXX",
"OOOOOOOOOOOOOOOOOOOOOOOOOOOOOOOOOOOOOOOOOOOOOOOOOOOOOOOOOOOOOOOO",
"OOOOOOOOOOOOOOOOOOOOOOOOOOOOOOOOOOOOOOOOOOOOOOOOOOOOOOOOOOOOOOOO",
"OOOOOOOOOOOOOOOOOOOOOOOOOOOOOOOOOOOOOOOOOOOOOOOOOOOOOOOOOOOOOOOO",
"OOOOOoooOOOOOOOOOOOOOOOOOooooooooooooooOOOOOOOOOOOOOOOoooooooooo",
"oooooooooooooooooooooooooooooooooooooooooooooooooooooooooooooooo",
"oooooooooooooooooooooooooooooooooooooooooooooooooooooooooooooooo",
"oooooooooooooooooooooooooooooooooooooooooooooooooooooooooooooooo",
"oooooooooooooooooooooooooooooooooooooooooooooooooooooooooooooooo",
"oooooooooooooooooooooooooooooooooooooooooooooooooooooooooooooooo",
"oooooooooooooooooooooooooooooooooooooooooooooooooooooooooooooooo",
"oooooooooooooooooooooooooooooooooooooooooooooooooooooooooooooooo",
"oooooooooooooooooooooooooooooooooooooooooooooooooooooooooooooooo",
"oooooooooooooooooooooooooooooooooooooooooooooooooooooooooooooooo",
"oooooooooooooooooooooooooooooooooooooooooooooooooooooooooooooooo"
};
