/* XPM */
static char *_0b7cb236eb2448ff4027b80eda16c74WDy3ZQ0UG6GHPFEA[] = {
/* columns rows colors chars-per-pixel */
"64 64 227 2 ",
"   c #2C0101",
".  c #280208",
"X  c #320003",
"o  c #31020A",
"O  c #012D01",
"+  c #032909",
"@  c #013401",
"#  c #023A01",
"$  c #01360A",
"%  c #083808",
"&  c #012C12",
"*  c #373606",
"=  c #333A06",
"-  c #581903",
";  c #650102",
":  c #680B00",
">  c #651E00",
",  c #4D3906",
"<  c #67270E",
"1  c #712406",
"2  c #7B2502",
"3  c #752A01",
"4  c #7D2E01",
"5  c #763300",
"6  c #7C3202",
"7  c #7A3A03",
"8  c #024C00",
"9  c #0A4A06",
"0  c #025402",
"q  c #0C5305",
"w  c #075807",
"e  c #145505",
"r  c #0E4912",
"t  c #295B04",
"y  c #3A5708",
"u  c #006401",
"i  c #016E01",
"p  c #086608",
"a  c #1D6601",
"s  c #1C6B00",
"d  c #1C6E09",
"f  c #017302",
"g  c #017C02",
"h  c #087708",
"j  c #177401",
"k  c #1D7201",
"l  c #106A10",
"z  c #236402",
"x  c #296606",
"c  c #236D01",
"v  c #2B6B01",
"b  c #316402",
"n  c #346A03",
"m  c #247002",
"M  c #297604",
"N  c #387905",
"B  c #377C11",
"V  c #5D4A05",
"C  c #754A02",
"Z  c #467D01",
"A  c #487F00",
"S  c #477A0B",
"D  c #567700",
"F  c #557D01",
"G  c #616E05",
"H  c #637708",
"J  c #787805",
"K  c #862704",
"L  c #812F00",
"P  c #8A2B01",
"I  c #842C09",
"U  c #823101",
"Y  c #86340A",
"T  c #873412",
"R  c #EF0925",
"E  c #FC0325",
"W  c #F80823",
"Q  c #844A05",
"!  c #865508",
"~  c #885611",
"^  c #A54303",
"/  c #B84E03",
"(  c #B05500",
")  c #BC5202",
"_  c #B65812",
"`  c #876601",
"'  c #866B04",
"]  c #857E02",
"[  c #8A7D03",
"{  c #897909",
"}  c #994921",
"|  c #A5702A",
" . c #AC693A",
".. c #B4663E",
"X. c #B8663E",
"o. c #B26B3E",
"O. c #C05301",
"+. c #B85C48",
"@. c #AE6444",
"#. c #AD6942",
"$. c #B56542",
"%. c #B86546",
"&. c #B26A43",
"*. c #B7624A",
"=. c #018301",
"-. c #028B00",
";. c #038309",
":. c #0B8C0C",
">. c #049903",
",. c #019C01",
"<. c #2D8801",
"1. c #338201",
"2. c #398604",
"3. c #3B8D02",
"4. c #2A940B",
"5. c #3C9903",
"6. c #01A501",
"7. c #09A203",
"8. c #01AA01",
"9. c #0AAD01",
"0. c #04A60A",
"q. c #01A90B",
"w. c #08A808",
"e. c #1BB502",
"r. c #1DBB01",
"t. c #27B503",
"y. c #33BD06",
"u. c #30B40B",
"i. c #458102",
"p. c #498102",
"a. c #4A8806",
"s. c #479706",
"d. c #459D01",
"f. c #499E02",
"g. c #4A9D0A",
"h. c #678204",
"j. c #7E8501",
"k. c #7B8802",
"l. c #7E9800",
"z. c #45A100",
"x. c #48A000",
"c. c #48A903",
"v. c #4CA30A",
"b. c #6AB105",
"n. c #7DBD02",
"m. c #7FBE0D",
"M. c #28C301",
"N. c #35CD02",
"B. c #33C309",
"V. c #37D101",
"C. c #39D202",
"Z. c #3DD409",
"A. c #46DC02",
"S. c #4CDC02",
"D. c #52DD03",
"F. c #54DF08",
"G. c #58DB11",
"H. c #7EC500",
"J. c #7FCD00",
"K. c #7BD302",
"L. c #47E304",
"P. c #4DE200",
"I. c #50E200",
"U. c #54EA03",
"Y. c #59E908",
"T. c #61E807",
"R. c #858501",
"E. c #8A8303",
"W. c #838B01",
"Q. c #858900",
"!. c #8A8A02",
"~. c #8D8409",
"^. c #83890A",
"/. c #978C06",
"(. c #92830B",
"). c #849302",
"_. c #8A9706",
"`. c #8B9B03",
"'. c #85990C",
"]. c #999E03",
"[. c #A58F1A",
"{. c #89A503",
"}. c #88A804",
"|. c #9CA101",
" X c #84B502",
".X c #84BE02",
"XX c #8BBB02",
"oX c #88B806",
"OX c #8BB20D",
"+X c #8DBB0A",
"@X c #8AAC10",
"#X c #97AD16",
"$X c #9D9622",
"%X c #A28F28",
"&X c #B4AC26",
"*X c #86C601",
"=X c #89C603",
"-X c #85CB01",
";X c #8ACA02",
":X c #84C309",
">X c #8AC40B",
",X c #85CB0A",
"<X c #8BCA0A",
"1X c #91C501",
"2X c #91C50B",
"3X c #84D201",
"4X c #8BD102",
"5X c #83D901",
"6X c #93D501",
"7X c #97DC06",
"8X c #9ADE02",
"9X c #95D30E",
"0X c #8CC911",
"qX c #9BE102",
"wX c #9FE800",
"eX c #9CE209",
"rX c #A0E605",
"tX c #A2E902",
"yX c #A4EB0B",
"uX c #AAF404",
"iX c #AEFC02",
"pX c #AAFA07",
"aX c #B3FF01",
"sX c #B7FB06",
"dX c #B9FE01",
"fX c #B4FE0A",
"gX c #B7FE11",
/* pixels */
"A c.f.f.x.x.x.f.x.x.x.x.x.x.x.v.d A A A A A A A A A A A A A A i.A A A A A c x.x.x.x.x.x.x.x.d.1.x.x.x.R.E.c P U x.x.x.x.x.x.x.g.",
"A c x.c x.x.c f.x.s.x.x.c c d.c A A Z A A A A A A A A A A A A A N v A A A c x.x.x.x.x.x.x.x.x.x.M d.x.Q.E.L 4 b s.c 2.x.2.x.c f.",
"Z m x.c x.m d.g.x.s.f.x.c 5 m c A A c A A Z v A A A A A A A A A A p.c c c z.x.x.x.x.x.x.x.d.x.x.c c k R.E.L L 5 n R.1.x.2.x.c g.",
"V E.Q.m d.d.v.x.x.N E.2.L L L L R...v A A c A A i.A i.Z A A c A A A (.R.3.x.x.c g.v.x.x.d.c d.x.c | $.R.4 L L L R.R.1.v D 5.R.c ",
"L k.W.R.v c c x.m Q.R.h.4 L L L E.&.c c c c p.i.c A A A A A c A A p.(.R.3.x.M M x.m d.x.f.R.v x.c  .$.R.U U L Y R.Q.H W.R.c R.c ",
"L 6 R.Q.R.a v s E.R.R.' L L L L [ X.$.$.R.c A i.m A A M A A c z p.i.j.Q.3.x.M c x.z z x.b R.R.k P &.R.R.U 4 6 R.Q.E.!.!.R.6 j.j ",
"L L R.R.Q.R.m h.E.R.R.' L L L L [ R.$.$.Q.v p.!.k A A n A A c R.E.E.R.R.!.x P $.v z R.E.R.R.R.L U $.R.Q.6 L L R.R.R.R.R.R.L k R.",
"U L R.R.R.R.(.c R.R.R.' L U L L E.R.$.$.$.Q.c R.E.A i.7 c A m R.R.R.R.Q.E.L L $.).c a R.R.R.U L ..$.R.R.L L L R.R.R.R.R.D v s ~.",
"L L L Q.R.R.W.c !.R.R.' U L L L [ R.$.$.$.R.Q.R.Q.i.F 7 j Z W.R.R.R.R.R.W.3 U $.j.x c (.R.R.L L X...R.R.U L 6 ^.!.R.R.E.c v R.Q.",
"U L L >X~.E.-XN c N E._.U L L U *XE.R.$.X.<Xj.J.~.k.#.U 6 [ R.-X2XE.-XE.` L 6 E.$.-XE.m c {.L L $.#XQ.^.4 L L :XXX*Xc c V U =X=X",
"! 4 L )..X.X).@Xa.s b.J L L L U {.XX X$.$.`.OX/.#X$.&.U U OX X`.`.OXl.*X! U ! XX&._.XXA m n V T $.[. XH.4 L L J F s N Z ! L `.`.",
"` L L E.,X;XE.oXj.m.c y U L 4 6 E.;X,X%.$.[ <Xj.$.$.;XU U ;X-XR.R.;X[ H.Q L [ =X$.R.,X1XW.v v c k H ;X4Xs c c c v c XX:X~ 4 E.E.",
"R.U L K ^.~.-Xl.+X/.m c 6 4 L 3 H.E.j.&.$.=X!.-X$.*.R.U L 2 E.;X=XR.J.[ U U }.W.&.$.{ ^.K.R.c c c c c c c c k v :X2Xl.E.J P 1X=X",
"l.6 L 6 L *X[ XXW.+X1Xm P P U 6 E.-X<X%.$.[ =X+.$.R.*XY L L >X[ k.-X[ =XU 4 [ =X<X....>XE.U U } $.s c c c L -X^.R.k. X=XL L E.E.",
"{.4 L L I -Xj.oXE. X-X` c c 6 4 ] *XoX..$.%.oX+.$.] *X7 L L *XR.R.+Xj.>XL L J >X>X&.&.XXR.K U $.$.{.;X=XL U =Xk.).[ OX;X6 K k.k.",
"}.U L L L R.3X).*XW.(.'.m c c v -XR.Q.$.$.%.E... .;XE.Q L L 4 -XH.^.;XR.L L }.R.{ R.$.$.-X6 6 $.;X X~.R.L 4 Q.=X.X-X`.E.L 4 *X*X",
"*XL L L L L *X*X*X;X*X'.L P s c c ;X=X..$.$.$.*.*X*X=X=XL L L =X*X=X.XJ.L L  X-X*X*X#.%.L L $.$.=X*X=X-XL L -X;X*X*X*XL L *X=X*X",
"*X*XL L L L U ,X*X*X*X'.U 4 6 7 m c s n v $.$.,X-X*X*X1.v L U 2 *X*X=XL L L *X*X*X*X;XY L L ..%X-X*X-X;XL U 3X*X*X*X-XL L *X-X*X",
"-X=X-XL L U U K.=X=X=X'.L U L P *X=Xs s c c c c c c c c s 4 6 L *X*X6XL L L *X*X=X5X4 U L } $.$X*X*X=X-XU 4 -X=X;X*X=XK L -X=X=X",
"=X*X=XL L 4 U U ;X=X-X).L 4 L P =X-X*Xo.*.$.$.-X*X*X-X*X=X4XL L U *X2 L L L *X*XK.L L K 4 $.$.$X;X*X*X;XU U -X,X*X*X).L L =X*X-X",
"-X=X-X6 L L L L L ;X;XL 4 U 4 P *X*X*X=X$.$.$.=X*X=X-X*X-X;XI L U ;X4 L L L *X*XL L L L 3 $. .$X*X*X*X;XU L ,XJ.*X-XW.L L *X*XU ",
"=X*X=XH.2 U U L L L L L L L 4 P =X=X-X*X..$.+.*X*X*X=X*X=X*X4 L L L L L L U n.5XL L L K -X$.$.*X-X*X=X-XL L L :X*X*X).U 3 =X4XL ",
"*X*X*X*X-XK L L U L U L U L L P -X=X*X*X$.$.#.*X*X=X-X*X*X*XOX4 U L U L L L 4 U L L 4 .X-X....*X=X*X*X-X6 L L *X=X*XW.4 R.*X5 U ",
"=X*X*X*X*XH.L L 4 L L L L L 4 P *X*X*X*X$.$.#.=X*X*X<X*X*X*X;X-X4 L L L L L U U 6 L *X-X*X$.@.*X=X;X*X3X4 L L *X*X=X).4 I 4 U 6 ",
"wX<XaXfX=X<XsXP U L U 4 L U 4 P 0XaXfXfXX.$.&.:XaXfX-X4XaXfXiX6XL U L L 4 L L L 3 iX:X=XgX$...qXiXtX*X<XU 4 U ;X-X<XL L L L L L ",
"qXtXeXeXrXtX8X(.6 U U L L L U I yX7XqX7X%.$.&.yX7X7XtXeX7X7XqXeX{ L U L U L 6 /.8X7XrXtXqX..#.eXeX7XwXyXU L U tXqXrXL L L L L qX",
"8XiX*X=XaXiX.XaX-X6 L L L L 4 fXaX*X*X*X%.$.o.aX=X*XaXfX*X*X;XaXaX-XU L L L L *X*X;XaXaX<X$.@.qX*X7XaXiXL L L iXfXaXL L 4 L =X-X",
"8XdX*X:XaXaX:XyX:XiX6 L L L L dXsX*X-X.X%.$.o.fX.Xn.dXuX.X*X:XaXsX;XU L L L uX:Xn.:XdXdX-X&...8Xn.6XaXfXU L L U yXdXL L P 5X*X*X",
"wX;XaXfX=X<XaX4XpX9XK 6 L L L ;X<XiXfXfX$.$.$.=XiXaX;X;XiXfXaX*X*XfXL L L L 6XaXaXiX-X;XiX$.&.qXaXtX-X<XL L L U ;XL L U E.fXfXaX",
"8XaX=X-XfXaX.XuX*XaXaXL L L L fXaX>X-X&.$.$.$.aX*X*XsXaX:X*X<XsXaX-XL L L L pX*X:X:XsXaX*X&.@.qX0X6XaXaXL L L L iXL L 4 |.-X=X*X",
"aXsXaXiXfXfXaXiXiXuXaXU L U iXfXaXaXaX@.$.$.$.aXaXaXfXiXiXaXaXaXaXsXL U L sXaXaXdXaXaXfXaX$.$.aXaXdX5.5.L L L L iX6 L U ].aXfXiX",
"aXaXaXaXaXaXaXaXaXaXaXL L 4 aXaXfXaXaX*.%.%.%.aXiXaXaXaXaXaXaXaXaXaXL L L fXaXaXiXaXaXaXX.$.#.aXaXb.x.g.L L L L C U L L |.aXaXaX",
"aXaXaXaXaXaXaXfXz.x.aXL L L aXaXaXaXx.x.f.x.x.dXaXaXaXaXaXaXaXaXaXaXL L L fXaXaXaXiXiXiX%.$.$.&XaXc.f.f.f.L L L L L L U |.aXaXaX",
"aXaXaXaXaXaXaXx.x.x.f.L L U aXaXiXx.x.d.x.x.x.x.d.aXfXaXiXaXaXaXaXaXL L U fXaXaXaXpXx.x.v.....&Xs.x.x.x.d.C L L L L 4 U |.aXaXaX",
"aXaXaXaXaXz.x.x.x.x.f.U L L s.z.x.x.x.x.x.x.x.x.x.5.aXf.x.x.iXaXaXiXL L 6 fXaXiXdXx.x.x.d.g.f.x.f.x.x.x.x.c.L L L L L L G x.iXaX",
"J.x.d.d.x.x.x.x.z.x.f.L U L x.d.x.x.x.x.x.x.x.x.f.c.x.x.x.x.d.d.sXd.L 4 L d.z.d.x.x.x.x.x.x.x.x.x.x.x.x.d.d.P L U L L L G x.x.aX",
"x.x.x.x.x.x.x.x.# d.d.L U L x.x.x.x.x.x.x.f.x.x.x.x.x.x.x.x.d.x.f.x.L 4 L f.x.x.x.x.x.x.x.x.x.x.x.x.x.x.x.x.K L L L L L G x.x.x.",
"x.x.x.x.x.x.x.9 Y.8 f.L L L x.x.x.x.x.x.x.x.x.x.x.x.f.x.x.x.x.x.x.c.U U L f.x.x.x.x.f.x.x.x.v.x.x.x.x.x.x.x.d.K L L U L G x.x.x.",
"x.x.x.x.x.x.x.9 g t.q L L L f.f.x.x.x.x.x.x.f.a.x.x.x.x.z.x.x.x.x.c.L L U f.x.x.x.x.x.f.x.x.e M x.x.x.x.x.x.x.x.L L L L s.x.x.x.",
"x.x.x.x.@ x.x.x.@ :.# L L L f.# d.x.x.x.f.A A p.A x.x.x.x.x.x.x.f.P L L L f.x.x.x.x.f.c.x.x.# t.O d.x.x.x.d.x.x.L L L U f.x.x.x.",
"d.x.x.# U.# f.d.# =.D.= 6 4 # S.# f.f.f.A A A A A d.x.x.x.x.x.x.f.L L L U f.x.x.x.d.v.# 9 d.# t.# x.x.x.v.x.c.f.a.U 6 5 x.f.x.x.",
"x.x.x.z p y.j x.$ =.D.* , M y.;.f.d.f.A A A A A A z.x.x.x.x.x.x.F L L L L d.x.x.x.x.v.5.B.3.@ =.S.1.x.x.B M N x.f.p.A A s.f.x.x.",
"x.x.d.x.x.=.U.c.# =.D.* # D.=.# f.O S A A A A A A z.x.x.x.d.x.x.L L L L U 4 x.x.x.x.c.f.O 4.# =.P.1.x.f.L.g @ d.A A A A A Z x.f.",
"x.# # x.x.=.f s.$ =.P.* D.g @ x.# A.@ A A A i.A A x.x.x.z.i.d.x.L L L L 4 U x.x.x.x.x.x.@ <.# =.=.d d.@ g -.v.v.A A A A p.A f.x.",
"d.g g F.# # =.e # =.D.d =.=.F.A.=.O A A A A A A A A A A A A A i.6 # L U L L g.g.$ $ # f.x.u.@ =.=.j # h @ p.A A A A A A A p.f.x.",
"p.O # =.I.s.@ q # =.U.8 =.$ g =.% Z A A A A i.A Z A A A A A A i.E P P L U L d.# I.I.Y.# f.y.@ =.=.s P.=.Z Z A A Z A A A S A A x.",
"A A A # ;.Y.@ =.T.=.=.=.=.=.@ A O O G.# A A A @ O p.# A A A A 2.4 E # 4 L U x.g.@ @ g =.T.q =.=.;.y.=.# @ O U.U.# i.~ F t A A x.",
"p.A A S # ;.I.=.-.=.=.=.=.# % # A.F.=.S.# A A i.N p.D S A A A A Z L # P i.Z A Z # # @ =.g 4.=.=.;.=.=.# A.S.;.;.A p.A S # A A A ",
"A A A p.A =.=.=.=.=.=.=.=.# A.S.-.h # # S A Z O A R i.i.A A A A A 2.S @ A A Z S D.D.D.@ # t.=.=.=.=.-.D.;.=.$ # A A A E p.$ Z Z ",
"A p.A Z Z % h ;.=.=.=.=.=.S.=.=.=.% p.p.A A A p.W A A A A A A A A A A # A A A % g =.=.S.S.=.=.=.=.=.=.g ;.h p.A A A i.A y % S p.",
"x Z A # 6.A @ # -.=.=.p =.=.=.% A A i.# A A @ a.A A @ Z # A A i.A A p.# A A Z Z Z S # O # =.=.=.=.# =.=.@ S A $ A A A # N p.i.A ",
"u # p.6.8.@ p.6.# =.g w =.=.O 6.@ p.# 8.# @ 8.p.A @ $ r 6.A $ O # A @ q.t A 9 # # % 6.# A @ # =.@ 6.# -.# A @ 6.A A n $ p.A A A ",
"6.6.% 6.6.6.+ 6.8.O & q.+ O 8.6.# p.6.8.>.6.6.O O 8.6.>.,.@ 6.6.,.@ 8.6.b p.-.7.9.6.6.0.O p q.O 8.q.6.O 6.O 9.w.@ @ w 6.b @ O O ",
"M.6.8.P.7.6.6.,.6.e.,.6.6.6.Y.6.6.6.6.6.w.6.L.6.6.8.q.S.6.6.6.6.6.9.U.6.6.6.S.6.6.6.6.6.6.B.6.6.6.Z.6.0.Y.6.6.8.A.6.6.0.0.0.P.6.",
"6.6.N.q.r.6.6.N.6.e.e.e.N.6.6.6.6.V.C.6.e.6.6.C.e.6.6.0.6.6.6.Z.V.6.6.6.e.6.w.6.r.C.e.8.w.9.e.M.6.8.6.6.6.r.6.V.6.6.e.e.r.6.6.6.",
"6.6.6.6.w.8.P.6.# 6.6.C.$ 6.6.6.S.q.6.8.6.6.6.0.6.0.6.6.6.6.S.0.6.6.6.D.N.8.8.6.6.0.6.6.6.6.6.M.S.6.6.# 6.8.q.8.6.8.V.6.i 6.6.6.",
"f @ 8.8.# @ 8.9 $ 6.6.6.@ 8.8.6.7.8.8.8.# 6.6.@ 6.6.6.-.S.I.6.6.7.@ P.6.u q.q.# 6.$ 6.8.9.6.6.6.$ 6.6.# 6.% # 6.>.6.8.6.% 6.6.8.",
"w i q q i i 0 i f 0 w.p w l f w l 7.w.r f f f f 0 g 0 >.8.i f f f 0 8.f 0 f w i h i 0 f 0 p ,.p i l f i 0 i i q w 0 g r u f 0 w ",
"      .           i $ i i f f f f $ # p f f f i i f i 8 @ p i f i i O f f f i i f i f f f u $ f i i f i X X X X X       X X X X ",
") ) ) ) ) ) ) ) )   X                   X           i i # f i i f h X                       X           ( ) ) ) ) ) ) ) ) ) ) ) ",
"6   L L U U U U U ) ) ) ) ) ) ) ) ) ) ) ) ) ) ) ) )     .       . . ) ) ) ) ) O.) ) ) ) O.O.O.) ) ) O.) 6 4 ; ; L 4     U I U U ",
"6 U ) ; U 6 L 3 4 6 I L ) K L 4 L   L L o U U 4 L L 4 4 P     L L ; P ) L L   o 4 ; L K L - L 4 o 4 L L P     6 1 4 I X - U U   ",
"  4 L L I     Y L 4   U L L L ; L X . U ) 6 4 P L I L )     T 6 4 I U L L o L 4 U 4 P Y _ >   - Y ^ I L 7 . Y I U U L 6 ^ ; L / ",
"4 o 4 L L 4 L : L 3 4 < P ; L 6 L L 6 L 6 U U X   L 4 / 6 4 L ) L L L L ^   X o K ; L L U 4 4 U U K U 2 6 4 U L L U 2 6 4 L L 4 "
};
