/* XPM */
static char *ad1f6fba94c34bca882956f147bfca0ax0DO7RXsH98ATNH2[] = {
/* columns rows colors chars-per-pixel */
"64 64 243 2 ",
"   c #010101",
".  c #0B0201",
"X  c #010B00",
"o  c #0C0800",
"O  c #02020B",
"+  c #0B0509",
"@  c #130200",
"#  c #160B01",
"$  c #041200",
"%  c #151600",
"&  c #010915",
"*  c #280000",
"=  c #340200",
"-  c #002000",
";  c #552801",
":  c #6A3400",
">  c #2A4E3A",
",  c #3B5A33",
"<  c #385A38",
"1  c #3A6434",
"2  c #524C0B",
"3  c #003147",
"4  c #02344B",
"5  c #003752",
"6  c #013953",
"7  c #335A48",
"8  c #0C5373",
"9  c #2F5464",
"0  c #076479",
"q  c #17647B",
"w  c #276668",
"e  c #2F7370",
"r  c #7F6E52",
"t  c #7C765B",
"y  c #7D7962",
"u  c #7D7E6C",
"i  c #7D7E72",
"p  c #A45C36",
"a  c #A96535",
"s  c #EB5C0A",
"d  c #ED5A12",
"f  c #F85415",
"g  c #FE531E",
"h  c #F55D19",
"j  c #EE760E",
"k  c #FA770C",
"l  c #F57B0C",
"z  c #F76817",
"x  c #F67D15",
"c  c #FA7C15",
"v  c #FC7518",
"b  c #F47D1C",
"n  c #FB7C1A",
"m  c #FD5522",
"M  c #FF6D26",
"N  c #EE7E22",
"B  c #ED7B27",
"V  c #FB7727",
"C  c #96664C",
"Z  c #81765C",
"A  c #81785B",
"S  c #B8744F",
"D  c #827A67",
"F  c #817D71",
"G  c #C06E58",
"H  c #78B448",
"J  c #7AB34D",
"K  c #76AB5B",
"L  c #77B552",
"P  c #7AB354",
"I  c #76B55B",
"U  c #79B45B",
"Y  c #79BA5E",
"T  c #74826B",
"R  c #7C877C",
"E  c #7C887B",
"W  c #7AAA66",
"Q  c #7BB465",
"!  c #78B665",
"~  c #7AB469",
"^  c #6BB07A",
"/  c #7AB572",
"(  c #AB9B32",
")  c #B69E39",
"_  c #DB8A00",
"`  c #DE9018",
"'  c #E5990B",
"]  c #EB8511",
"[  c #F78113",
"{  c #FD831E",
"}  c #D8AF19",
"|  c #F7BA06",
" . c #FABD17",
".. c #FFBF1F",
"X. c #E98228",
"o. c #FC8524",
"O. c #F4862C",
"+. c #FA882C",
"@. c #E6843B",
"#. c #F39130",
"$. c #FB943E",
"%. c #FEBE21",
"&. c #FFB52B",
"*. c #F2AB36",
"=. c #F7B934",
"-. c #97C324",
";. c #EECB07",
":. c #F6C809",
">. c #F4CC0E",
",. c #F4D80B",
"<. c #EFCA17",
"1. c #F6CD14",
"2. c #F8CC13",
"3. c #FCC11C",
"4. c #F8CA1A",
"5. c #F8D415",
"6. c #FADD14",
"7. c #FEDD1B",
"8. c #EEE30F",
"9. c #F3E40E",
"0. c #F6E70E",
"q. c #EEFF02",
"w. c #EDFE0E",
"e. c #F5FD02",
"r. c #F8FF01",
"t. c #F7F60D",
"y. c #F9F70F",
"u. c #F3FD0B",
"i. c #FAFB0C",
"p. c #F5E412",
"a. c #FAE113",
"s. c #F6ED11",
"d. c #FAEC15",
"f. c #F6E11B",
"g. c #FCE11A",
"h. c #FEEE1A",
"j. c #EAF417",
"k. c #EEFF11",
"l. c #EFFF1D",
"z. c #F6F414",
"x. c #F9F615",
"c. c #F2FE12",
"v. c #FAFD12",
"b. c #FCF41A",
"n. c #F1FF1D",
"m. c #F8FE1D",
"M. c #FDC122",
"N. c #FFC32D",
"B. c #EDD82A",
"V. c #FCDA29",
"C. c #FEC432",
"Z. c #FEC636",
"A. c #FDC937",
"S. c #FBC63A",
"D. c #FEC63A",
"F. c #FFC73D",
"G. c #FEC83C",
"H. c #E3DB38",
"J. c #FDD838",
"K. c #FCE726",
"L. c #EFFE22",
"P. c #EEFB2D",
"I. c #FDF322",
"U. c #F1FE22",
"Y. c #FBFE22",
"T. c #F6F72B",
"R. c #FAFD2C",
"E. c #FDEA36",
"W. c #EEFB34",
"Q. c #F4FC34",
"!. c #FAF835",
"~. c #F2FE3D",
"^. c #FAFC3B",
"/. c #B59E43",
"(. c #86AF51",
"). c #B8A449",
"_. c #BAA34C",
"`. c #AFAE52",
"'. c #B7A758",
"]. c #BBAC5C",
"[. c #8B8769",
"{. c #82867A",
"}. c #A59772",
"|. c #85AE64",
" X c #87B26D",
".X c #81AB72",
"XX c #8CB377",
"oX c #B5A966",
"OX c #B0AF6F",
"+X c #A8A374",
"@X c #B3AA77",
"#X c #D3844C",
"$X c #CC8B57",
"%X c #F99541",
"&X c #F79648",
"*X c #FE9F53",
"=X c #EBAD48",
"-X c #F6A45A",
";X c #FCA35C",
":X c #CE9067",
">X c #FBA362",
",X c #FAA766",
"<X c #FFB575",
"1X c #FAC744",
"2X c #F8D848",
"3X c #FFCD56",
"4X c #F5D351",
"5X c #DCE647",
"6X c #F2EC4D",
"7X c #F3FD42",
"8X c #FBFD43",
"9X c #FAF549",
"0X c #FAFE4B",
"qX c #F7FA57",
"wX c #FBC66F",
"eX c #E7D569",
"rX c #F8FB68",
"tX c #EFF37B",
"yX c #F6F67A",
"uX c #045980",
"iX c #1C5E83",
"pX c #08678B",
"aX c #0C668C",
"sX c #03698E",
"dX c #156587",
"fX c #036794",
"gX c #016A94",
"hX c #076896",
"jX c #0A6994",
"kX c #016B9A",
"lX c #0C73A0",
"zX c #617D80",
"xX c #519497",
"cX c #728B8C",
"vX c #5BA590",
"bX c #71A59A",
"nX c #4A9FA2",
"mX c #99968B",
"MX c #B7B086",
"NX c #FEBB86",
"BX c #BDC095",
"VX c #FDFD92",
"CX c #F7FAB5",
/* pixels */
"r.r.r.r.r.r.r.r.r.r.r.r.r.r.r.r.r.r.r.r.r.r.r.r.r.r.r.r.r.r.i.i.m.m.m.m.m.m.U.m.m.m.U.m.m.m.U.v.i.v.r.e.r.r.r.r.r.r.r.r.r.r.e.r.",
"r.r.r.r.r.r.r.r.r.r.r.r.r.r.r.r.r.r.r.r.r.r.r.r.r.r.r.r.r.r.r.c.c.m.m.m.m.m.m.m.m.m.m.m.Y.m.v.v.i.r.r.r.r.r.r.r.r.r.r.r.r.r.r.r.",
"r.r.r.r.r.r.r.r.r.r.r.r.r.r.r.r.r.r.r.r.r.r.r.r.r.r.r.r.i.b.E.x.i.v.m.m.m.m.Y.m.m.m.m.Y.v.v.v.i.r.r.r.r.r.r.r.r.r.r.r.r.r.r.r.r.",
"r.r.r.r.r.r.r.r.r.r.r.r.r.r.r.v.wX5.e.r.r.r.r.r.r.r.i.i.<.G.G.S.y.i.i.i.i.v.c.v.v.c.v.v.v.u.r.r.r.r.r.r.r.r.r.r.r.r.r.r.r.r.r.r.",
"e.i.r.e.r.r.r.r.r.r.r.r.r.m.3XG.D.F.B.I.u.x.r.r.2X3XD.D.D.G.S.G.K.q.r.r.r.r.r.r.r.e.r.r.r.r.r.r.r.r.r.r.r.r.r.r.r.r.r.r.r.r.r.r.",
"T.z.i.5Xi.r.r.r.r.r.r.r.i.1XA.G.Z.D.D.1XI.i.y.I.1XG.G.G.N.C.N.Z.1XE.e.r.r.r.r.r.r.r.r.e.r.r.r.r.r.r.r.r.r.r.r.r.r.r.r.r.r.r.r.r.",
"x.2 OXy.i.v.i.i.i.i.e.4X3XG.G.Z.N.C.G.G.G.1X1XG.G.Z.N.N.N.N.N.N.D.D.Z.y.r.r.r.r.r.r.r.r.r.r.r.r.r.r.r.r.r.r.r.r.r.r.r.r.i.i.i.i.",
"x.b.# y.v.v.i.i.i.i.b.1XG.G.Z.N.N.N.Z.A.G.G.G.F.D.C.N.N.N.N.N.N.F.F.F.2Xi.r.r.r.r.r.r.r.r.r.r.r.r.r.r.r.r.r.r.r.r.r.e.e.i.i.v.i.",
"y.x.Y.x.b.x.x.x.x.y.E.N.G.N.N.N.N.N.N.N.G.F.D.G.N.N.N.N.N.N.N.N.N.Z.F.F.x.r.r.r.r.r.r.r.r.r.r.r.r.r.r.r.r.r.r.r.r.i.i.i.x.x.y.i.",
"x.x.x.x.x.x.x.x.x.x.D.S.C.N.N.N.N.N.N.N.N.N.N.N.N.N.N.N.N.N.N.N.N.N.N.N.Z.r.r.r.r.r.r.r.r.r.r.r.r.r.r.r.e.e.i.i.y.y.x.x.x.x.x.x.",
"x.x.x.x.x.x.x.x.x.b. .M.%.N.N.N.N.N.N.N.N.N.N.N.N.N.N.N.N.N.N.C.C.C.%.%...i.r.r.r.r.r.r.r.r.r.r.r.r.i.i.i.y.i.v.x.x.x.x.x.x.x.x.",
"x.x.x.x.x.x.x.x.x.x.b.| 3.M.M.N.N.N.N.N.M.N.N.N.N.N.N.N.N.N.N.N.C.%.%.%.r.r.r.r.r.r.r.r.r.r.r.i.i.i.i.i.x.x.x.x.x.x.x.x.x.x.x.x.",
"x.x.x.x.x.x.x.x.x.x.b.x.>.....%.M.M.%.....3.....N.N.N.M.%.%.%.M.%.%. .,.i.t.i.r.r.r.r.r.i.i.i.i.i.y.z.x.x.x.x.x.x.x.x.x.x.z.x.!.",
"x.x.x.x.x.x.x.x.x.x.x.x.z.b. ...M. .M.%.| | 6.M.M...%.3.| :.I.K.| | b.z.y.t.t.i.i.i.i.i.t.i.y.x.x.x.x.x.x.x.x.x.x.x.x.x.x.!.qX0X",
"x.x.x.x.x.x.x.x.x.x.x.x.x.z.b.;.:.| b.x.b.x.x.b.;.3.3.5.b.x.x.x.x.x.x.x.x.x.x.x.i.i.t.i.x.x.x.x.x.x.x.x.x.x.x.x.x.x.x.x.x.qX0X0X",
"x.x.x.x.x.x.x.x.x.x.x.x.x.x.z.z.x.b.x.x.z.x.x.x.s.| I.b.x.x.x.x.x.x.x.x.x.x.x.x.x.x.y.x.x.x.x.x.x.x.x.x.x.x.x.x.x.x.x.b.x.0X0X8X",
"x.x.x.x.x.x.x.x.x.x.x.x.x.x.x.x.x.x.x.x.x.x.x.x.x.x.x.x.x.x.x.x.x.x.x.x.x.x.x.x.x.x.x.x.x.x.x.x.x.x.x.x.x.x.x.x.x.x.x.b.^.0X0X^.",
"x.x.x.x.x.x.x.x.x.x.x.x.x.x.x.x.x.x.x.x.x.x.x.x.x.x.x.x.x.x.x.x.x.x.x.x.x.x.x.x.x.x.x.x.x.x.x.x.x.x.x.x.x.x.x.x.x.x.x.x.Y.!.R.^.",
"z.x.x.x.x.x.b.x.x.x.x.x.x.x.x.x.x.x.x.x.x.x.x.x.x.x.x.x.x.x.x.x.x.x.v.z.x.x.x.x.x.x.x.x.x.x.x.x.x.x.x.x.x.x.x.x.x.x.x.x.x.I.Y.R.",
"p.s.s.b.x.x.x.x.x.x.z.z.b.x.x.b.x.x.x.x.x.x.x.x.x.x.x.x.x.x.x.x.x.x.x.x.x.x.x.x.x.x.x.x.x.x.x.x.x.x.x.x.x.x.x.x.x.x.x.x.z.x.b.U.",
"a.9.b.h.0.o x.z.b.0.0.9.h.b.b.p.9.b.x.x.x.x.x.x.x.x.x.x.x.x.x.x.x.x.x.x.x.v.z.x.x.x.x.x.x.x.x.x.x.x.x.x.x.v.x.b.x.x.b.x.x.x.b.x.",
"a.a.6.6.a.g.MX,.,.a.p.a.a.a.6.a.a.0.b.x.x.x.x.x.x.x.x.x.x.x.x.x.z.m.x.x.x.x.x.x.x.x.x.x.x.x.x.x.x.x.x.x.x.x.z.b.b.x.d.b.x.x.x.x.",
"a.6.a.0.a.0.2 . a.a.6.a.a.a.a.a.a.,.h.x.x.x.x.x.x.x.x.x.x.x.x.x.x.x.x.x.x.x.x.x.x.x.x.x.x.x.x.x.x.x.x.x.z.d.b.b.d.a.b.b.m.8.b.b.",
"K.a.6.6.a.f.2 O # a.a.a.a.a.a.a.a.a.b.x.z.x.x.x.x.x.x.x.x.x.x.x.x.x.x.x.x.x.x.x.x.x.x.x.x.x.x.x.x.x.x.x.9.d.h.6.a.a.a.6.h.9.p.9.",
"qXrXyXeX  O 6X    V.a.a.a.6.a.a.a.a.a.s.h.z.b.x.x.x.x.x.x.x.x.x.x.x.x.x.x.x.x.x.x.z.x.z.z.b.x.b.x.z.9.d.p.a.a.a.a.a.a.a.a.a.a.a.",
"0X            O   . 7.K.g.6.a.a.a.a.6.a.p.d.d.s.x.x.x.x.x.x.x.x.z.x.b.x.x.x.x.x.b.t./.L.o x.z.z.d.d.h.a.a.a.a.a.a.a.a.a.a.a.a.a.",
"+ O VXVX                . # p.a.g.a.a.a.a.a.p.b.x.0.8.s.z.h.s.p.d.b.b.s.z.b.x.x.z.x.h.W.o d.s.s.d.a.a.a.a.a.a.a.6.a.a.a.6.a.p.a.",
"^.8XVXO                 @ @ # V.g.>.a.a.a.a.a.a.a.a.a.a.a.a.a.a.p.a.6.d.I.I.p.8.h.h.b.0.6.p.a.6.a.a.a.a.a.a.a.g.6.7.1.>.>.7.7.g.",
"Q.2   O               eX4.4.4.1.1.7.g.6.6.a.a.a.a.a.a.a.a.a.a.a.a.6.6.p.6.a.6.6.6.J.p.a.a.a.a.a.a.a.6.a.a.g.2X<X,X>.2.2.2.2.>.>.",
"^.o O OX                o 4.>.2.4.1.5.>.5.5.,.a.a.a.a.a.a.a.a.a.a.f.T.~.7X~.~.9X1X,X-XV.a.a.a.a.a.a.g.3X=.-X>X;X-X=.2.2.2.2.1.2.",
"rX  o qXO   o             1.4.2.2.2.2.2.6.7.7.>.a.7.a.a.a.7.a.,.8.^.~.~.~.~.0X=X;X;X,X*.6.f.p.6.a.p.NX,X;X,X;X,X;X*.2.2.2.2.2.2.",
"o O 9X  & 6X          O   @ >.2.2.2.2.2.2.2.2.2.7.2.2.5.6.6.7.~.7X~.~.~.~.7X<X,X,X*X-X>X<X2Xp.7.5.<X,X-X;X&X%X$.;X,X5.2.2.2.2.2.",
"  rXtXO ^.O MXCX      4XeX  4.1.2.2.2.2.2.2.2.2.2.2.2.2.2.^.~.~.~.L.l.n.9XNX>X>X&X%X&X>X>X-X=X=X,X,X;X&X%X%X%X%X%X;X;X*.4.1.4.2.",
"VX!.tXQ.qX+ `.R.rXO   eX4.4XJ.1.2.2.2.2.2.2.2.2.2.2.2.4.~.~.~.Q.l.l.L.L.NX>X*X&X%X%X$.$.&X;X;X;X>X;X%X$.$.%X$.%X%X&X;X>XwX2.2.2.",
"R.!.E.` o O ] Y.Y.qX&   &.M.. 2.2.2.2.2.2.2.2.2.2.2.:.^.~.7X~.l.l.L.L.!.;X;X%X%X%X%X%X%X$.&X;X;X;X$.$.%X%X%X%X%X%X%X&X&X,XN.1.1.",
"x { c ;   B c l v c p   l [ &.' ' 1.1.2.2.2.2.2.2.2.^.~.~.P.L.L.l.l.l.#.>X&X%X%X%X$.%X%X%X$.$.$.%X%X$.%X%X$.%X$.%X%X%X%X#.#.' ' ",
"x c x     n n c c c n @ j n c [ ] *.. ' 1.5.4.2.2.B.~.~.~.l.l.n.l.l.U.V.+.{ $.%X%X%X%X%X%X$.$.$.$.%X%X%X%X%X&X%X$.%X$.o.o.n x c ",
"c c #X. . c c x c c v @.= n x n b . . &._ _ ' =.%.7X~.~.l.n.l.l.l.L.L.l.k o.o.$.%X%X%X%X$.+.+.+.$.%X%X%X%X%X+.$.%X%X{ o.n x x [ ",
"c c #X    c c c c c c c = n c B       X.X.n ] &.2X~.~.~.l.l.l.l.U.l.k.n.E._ o.o.O.$.O.+.o.o.V o.o.O.%X%XO.o.o.o.O.O.o.{ c x x c ",
"c c #XO @ n c c c c c c = c N .           * c c ^.~.~.~.l.l.l.n.w.w.w.c.c.z.J.o.o.o.o.o.o.{ k j o.o.o.o.o.o.k o.o.o.{ c c c x n ",
"c c #X  X.v c c c c c c c {                 C ` ~.~.~.P.l.l.l.w.c.k.w.k.k.k.c.j.k l l T.T.l.l.L.9X6Xo.o.` k c c [ n [ n c c c c ",
"c c #XO b : c x n c c c x @.  .             . 9X~.7X~.L.l.l.k.k.w.k.k.k.k.w.w.w.i.k.c.n.L.l.n.L.U.^.B.B.~.x c c c c c c c c c c ",
"c c #X  b O.b * x c c c x @.O C a # p         O ~.~.~.l.L.k.c.k.k.w.k.k.w.k.k.w.w.k.w.k.l.l.l.L.l.~.~.~.7X} x c c c c c c n c c ",
"x c #X  N c @ l c c c c x x . k b = [ n c .   O 7X~.Q.l.L.k.k.k.k.w.w.u.q.w.k.w.k.k.w.c.w.l.W.P.n.L.~.~.8X7Xn c c c c c c c d d ",
"c c #XO N c o.c l x x c x n V v v c c x c b O O . 7XP.l.n.k.k.w.k.q.q.q.q.q.w.w.k.k.k.k.k.c.    6XL.~.~.~.~.c c c n n h z M f g ",
"c c #X  N c b z V z s h v M V h h M v v c c :       tXl.l.k.k.k.w.q.q.q.q.q.q.q.q.k.L.5XL.c.% O +XW.~.~.~.~.n c c n z M g g g g ",
"n c #XO z s f M M m d m g g g g g g V z c c 8X  O . rXn.l.k.k.k.u.e.q.q.q.q.q.q.q.w.W.  7Xl.w.O   qX7X~.7X~.n [ v d m m g g g g ",
"'.$X}.  . MXq iXiXfXfXfXq iXiXiXiXG S S :X:X7X    ~.U.L.n.k.k.k.w.w.q.l.o q.q.q.q.i.O             6X~.~.7X~.n s M M m g m g g g ",
"fXfXfXO   hXgXgXgXgXgXgXgXgXgXgXgXgXgXgXgXsXvX. T ! K U P J J J J J P   X P J J H -.  .                   H.X.a w dXjXaXsXgXaXaX",
"fXfXgXO . 0 kXgXgXgXgXgXgXgXgXgXgXgXgXsXgXsXQ 1 ! / U U U L P L L P U   X X .   H H (./..                 Z t A A Z dXaXzXr kXgX",
"gXgXgX    aXkXgXgXgXgXgXgXgXgXgXgXgXgXgXgXsXw 1 , W ! U U P L P L L       $ - L H ( }.                  #   }.u t A t A t t A 9 ",
"gXfXfXq   . gXfXgXgXgXgXgXgXgXgXgXgXgXgXgXgXsX4 7 / ~ ~ Q U Y U K W   . O  XL ( ( )     #       .     O '.o oX'.}.D A F T y t [.",
"gXgXkXhXO   9 fXgXgXgXgXgXgXgXgXgXgXgXgXgXuX> , , ,  XI Y U P  X          $ $ ) ) ) @XoX_.O   . oX      # '.u i F u u u [.u y t ",
"gXgXiXe     O kXgXgXgXgXgXgXfXgXgXgXgXgXgX8 > 1 .X/ Q Q Q P U XX            . /.) ).$X_.).    . _..     . oX[.u u u u u i u u y ",
"pXpXO         & gXgXgXgXgXhX6 gXgX8 gXgXkX6 4 < ~ ~ ~ U Y I U               X @X].).).)..   O . _.).O   . '.u u u u u u u u u u ",
"                aXgXgXgXgXgX4 5 jX6 lXdX4 4 4 1 ~ ~ ~ Q I I U $ Q               oX].`.)..     )._.].oX.   [.i u u u u u u u R R ",
"                .   & q gXdX4 4 4 6 4 4 4 4 4 bX~ ~ ~ ! U U U U U X        X      '.].].#   . ].].oXoXoX. cXu y u u u u {.R R cX",
"                          & 4 4 6 4 4 4 4 4 6 hX/ ~ ~ ~ Q Q U L U U     X  XXX    +X`.MX    '.oX].|./ Q OX{.R E u u F u R R sXkX",
"                          . .   & 4 4 4 3 4 8 gX^ ~ ~ ! ~ ! U U U U   O XX$ Y $ O   X BX    ].].|.Q ~ I pXq mXcX{.{.R i cXxXgXgX",
"                                  & 3 aXpXgXkXhXq Q ~ ~ ~ ! U U U U W   Q   Q ~ O   X XX  @X].U Q ~ ~ nXfXgXgXdXq cXR R cXgXgXgX",
"                                    O dXkXgXgXgXgXe Q ! ~ ~ Q I U U U W U Q U U           |.U I ~  X~ gXgXgXgXgXfXkXbXcXhXfXfXgX",
"                                      O dXhXgXgXgXvXQ Q ~ ~ Q I U U I U P U U U           U I Q ~ Q e gXfXgXgXgXfXfXhXaXsXsXgXfX",
"                                          & gXkXgXgX0 Y ~ ~ ~ ~ ~ Q U U U U U U X         U Q ~ ~ / 0 gXgXgXgXgXgXgXgXgXgXgXgXgX",
"                                      O   . O aXgXgXgXxX~ Q ~ ~ ~ ~ I U U U U U U         ~ ~ ~ ~ gXkXgXgXgXgXgXgXgXgXgXgXgXgXgX"
};
