/* XPM */
static char *_907763b5d3f4edec43ccec71b62dc24uWY2avSHDYMgMPaO[] = {
/* columns rows colors chars-per-pixel */
"64 64 18 1 ",
"  c #090909",
". c gray5",
"X c #141413",
"o c #181817",
"O c #1C1C1B",
"+ c #1D1E1B",
"@ c #1D1E1D",
"# c #211F1D",
"$ c #28221F",
"% c #232320",
"& c #242320",
"* c #292623",
"= c #2B2A27",
"- c #332A26",
"; c #332E28",
": c #382B2F",
"> c #3C322C",
", c #564144",
/* pixels */
"o##ooooooo#oXooooo #Xo#oo oo#oooo##ooooooo#oXoooooXooo#oo oo#ooo",
"#::::$$$$#$##$$$#:###:$#$:#::$:$#::::$$$$#$##$$$#:$$$:$#$:X:$$:$",
"o:O$XOOO$O$XOOOOO#OX#$##X###O#$ o:O$XOOO$O$XOOOOO#OXO$O$X$OOO#$ ",
"o$$oOO$XO$OOOOOOOOO########XXOO o$$oOO$XO$OOOOOOOOOO$O$o$#OoXOO ",
"o:OOOO$OOOXOO$OOO##oO#O##X#o$#X o$OOOO$OOOXOO$OOO$OoOOOOOXOO$OX ",
"o$OX#$OOO$OOOOOX#O#oO#X###o#o$O o$OX#$OOO$OOOOOX#OOOO$XO$OOOO$O ",
"o$oo$OOO$O#OOO$OO#o#OO#o####$O#Xo$oo$OOO$O#OOO$OO#OOOO$oOOOO$O#X",
"X$O$O#X$O$OOX$O$OOOo##OO#Xo#OOO X$O$O#X$O$OOX$O$OOOoO$OOOOO$OOO ",
"o$#O$OOOoOO#$OoOOOO####oOX$o#O# o$#O$OOOoOO#$OoOOOOO$$#OOX$o#OO ",
"o:O#OOO#OOO$$$OXoOO#o$#oOO#$OOOXo$O#OOO#OOO$$$OXoOO$X$OOOOO$OOOX",
"X$$X#OOOoOOO$OOOOO##$###oO##OX#XX$$X#OOOoOOO$OOOOO#O$$OOoO$#OX$ ",
"o:X$OOOOXOO$X$oOOoO*###o##O#OOo o:X$OOOOXOO$X$oOOoO$OOOOO$O#OOo ",
"#$OOOOOOOO$#$#OOOOO#OO#X###O#OO #$OOOOOOOO$#$#OOOOO$OO#XO$OOOOO ",
"o$XOOOoOO$o$$OX$O#OOOOOOOO#*=&O o$X$==oOO$o$$OX$OOOOOOOOOOOOOOOX",
"o$oOOOXO$OXOOOO#O&OOOoOOOo*==;$ o$o===OO$OXOOOO#O$OOOoOOOoOOO#$ ",
"  X X X       X     X  XX.O...   XX.O.O.    X X X   X        X  ",
"oo#oXooooo ooo#oo oo#ooo&;;&&&oooo$&+&&&$oXooo+oo oo#oooo##ooooo",
"$#$##$$$#:$$$:$#o:#::$:>>>,,,>&&$+$;;>>>;,$$$:*+$:X:$$:$$$:::$$$",
"OoOXoOOOo$OOO#O o:O$OO>===>>>=OOOoO+&===$>=OO#OXo:O$OO$OOO$$$OOO",
"$O$OX$OX$OOO$OO o$$$$===&==>=+OO$O$=+>=+>===$OO o$$$$OOOoOO$OXOO",
"oO#OOOO$+OO$OO$ o:O$=>===&>==&++oO+====>===>=O$ o:O$O$OOOo$OOoO#",
"OOOXOO$O$O#OOOO $$$O=====>&+>=OOOO++==>=>=;===O #$$XOOOOO$oX$OOO",
"oO$Oo$O$$$OOXOO o+===;=O====>;OOoO*=%>=>>>==+==Xo#OOO#OXOOOO$#OO",
"OOOO#O$#XOO$Oo$Xo>======>==>=%O+OOO$;=>;+==>=$>Oo$OOOOOO$OO$OOO#",
"OOO$$XO$$OOOOOO %>=O====>=>=>X$OOOO$>O=>>======.$*OXOOOO$O$O$X$O",
"O$OO$OOOO#OOO$O.%>>==;=>$;=>$$oOO$OO$====;===>=.&:$OO#O$o#O$$$oO",
"OXO$OOO#OOO#OO=.&>+>==>=>;>X$OOOOXO$OO=;===;===.&>O$OO$O$#$X$OOO",
"OOoX$OOOXOOoO=>.&>===+$>=>O$OOO$OOoX$OO=#==&==>O&>==OXo$O$O$OOO#",
"OOOOO$O$OOX$O;=.&>====O==OoOOX=====OO$O$==O>=;=.&>==OOXOOOoOOXOO",
"OOXO$O$OO$$O$%=O+>==;>==O$++&=;===O=$O$OO->=>==O.>=&#$O$O$OO$O#O",
"O#OOOXOOOOO#OOO o$$XO$OOo+++=====;===XOOOOO#OOO o$$XO#OOo#OOOOOO",
"    X X X   X        X    X O.O...... X     X  XX X      XX X X ",
"ooXooo#oo oo#oooo##ooooooo+OO%$$$%.%%o$oo oo$ooooO+ooooooo$oXooo",
"#:$$$:$#$:X:$$:$#&:::$$&$#$+;>>>;,>>>:$+$:+::$:$$$:::$$$*+$OO$$$",
"o:O$XOOO$O$XOOOO##OX##+&X$OO=;>.%,=>+OOO$O$XOOOOO$OXO$O$X$OOO+$ ",
"o$$oOO$XO$OOO$==-*==>->+$#OoX==.%>>%OO$XO-=========&$O$o$$OoXOO ",
"o:OOOO$OOOXOO:===>=&=====XOO$O#.$>=OO+&O==O==>===>=$OOOOOXOO$OX ",
"o$OX#$OOO$OO#*=#;====>O=>=OOO&O o$OX+&O==>=====O====O$XO$OOOO$O ",
"o$oo$OOO$O#O#O>*=;====>&===O&O+Xo$oo$O==>=;===>==;=OOO$oOOOO$O$X",
"X$O$O#X$O$OOX##:===&=>=====>O++ X$O$O;#>=>==$>=>==OoO$OOOOO$OOO ",
"o$#O$OOOoOO###X#====>>;==O>%;OO o$#O>===%==;>=&==OOO$$#OOX$o#OO ",
"o:O#OOO#OOO#$##Xo==>+>=====>=%OXo$O*===;===>>>=OoOO$X$OOOOO*OOOX",
"X$$X#OOOo###$##oOO;=>>==$=>;=O$XX$$O;===%===>==OOO#O$$OOoO$+OX$ ",
"o:X$OOOOXo#$X$o#OoO>=====>=;==o o:X>====+==>O>oOOoO$OOOOO$O+OOo ",
"#$OOOOOOOO######OOO&==;+=>====O $$+=======>;>#OOOOO$OO#XO$OOOOO ",
"o$XOOOoO##o##OX#OOOOO=========O o$X===%==>%>&OX$OOOOOOOOOOOOOOOX",
"o$oOOOXO##X###O#O&OOOo===$===;$ o$o===+=>=++OOO#O$OOOoOOOoOOO#$ ",
"    X  XX X      oX X X.....#.X X   +.....   X    X X X       X ",
"o oo#oooo##ooooooo#oXooo&&#$&&#oo o&;&&&$##ooooooo#oXooooo ooo#o",
"$:#::$:$$$:::$$#o:$##$$$#,>>>,&#$:X,>>,>$$:::$$#$:$##$$$#:$$$:$#",
"OoOXoOOOo$OOO#O o:X$OO$OOO>>>=OOOoOO&==Oo$OOO#OXo:X$OO$OOO$$$OOO",
"$O$OX$OX$OOO$OO o$$$$OOOoOO>=oOO$O$&O>OX$OOO$OO o$$$$OOOoOO$OXOO",
"oO#OOOO$#OO$OO# o:O$O$OOOo$OOoO#oO$OOOO$+OO$OO# o:O$O$OOOo$OOoO#",
"OOOXOO$O$O#OOOO #$$XOOOOO$oX$OOOOOOXOO$O&O#OOOO #$$XOOOOO$oX$OOO",
"oO$Oo$O$$$OOXOO o#OOO#OXOOOO$+OOoO$Oo$O$$$OOXOOXo#OOO#OXOOOO$#OO",
"OOOO#O$#XOO$Oo$Xo$OOOOOO$OO$OOO#OOOO#O$#XOO$Oo$Xo$OOOOOO$OO$OOO#",
"OOO$$XO$$OOOOOO o$OXOOOO$O$O$X&OOOO$$XO$$OOOOOO o$OXOOOO$O$O$X$O",
"O$OO$OOOO#OOO$O o$$OO#O$o#O$$$oOO$OO$OOOO#OOO$O o$$OO#O$o#O$$$oO",
"OXO$OOO#OOO#OOO o$X$OO$O$#$X$OOOOXO$OOO$OOO#OOO o$X$OO$O$#$X$OOO",
"OOoX$OOOXOOoOO$ o$OOOXo$O$O$OOO#OOoX$OOoXOOoOO$Xo$OOOXo$O$O$OOO#",
"OOOOO$O$OOX$O#O o$OOOOXOOOoOOXOOOOOOO$O$OOX$O#O o$OOOOXOOOoOOXOO",
"OOXO$O$OO$$O$OOXX$OO#$O$O$OO&O#OOOXO$O$OO$$O$OOX $OO#$O$O$OO$O#O",
"O#OOOXOOOOO#OOO o$$XO#OOo#OOOO++O+OOOXOOOOO#OOO o$$XO#OOo#OOOOOO",
" XX X X     X X X   X        X    X X X       X     X  XX X     "
};
