/* XPM */
static char *result[] = {
/* columns rows colors chars-per-pixel */
"64 64 205 2 ",
"   c #FD3F3F",
".  c #F6651F",
"X  c #F56C1C",
"o  c #EF7716",
"O  c #EE7B12",
"+  c #F17416",
"@  c #F07A15",
"#  c #F27118",
"$  c #FC4F2F",
"%  c #F95D25",
"&  c #FB542D",
"*  c #FA5929",
"=  c #FC4C34",
"-  c #FC433C",
";  c #FC4839",
":  c #FB5131",
">  c #F76221",
",  c #F86322",
"<  c #FD3B43",
"1  c #FB344B",
"2  c #FB2D54",
"3  c #F7265D",
"4  c #F9265D",
"5  c #F92959",
"6  c #F51F66",
"7  c #F41B6B",
"8  c #EE1576",
"9  c #ED137B",
"0  c #F01674",
"q  c #F21971",
"w  c #F0137C",
"e  c #F62163",
"r  c #F82363",
"t  c #FA4045",
"y  c #3FFE3F",
"u  c #7CEE13",
"i  c #67F61E",
"p  c #6BF51B",
"a  c #74F216",
"s  c #7AF015",
"d  c #72F319",
"f  c #5DFA26",
"g  c #54FC2C",
"h  c #5AFB29",
"j  c #4BFD33",
"k  c #43FE3B",
"l  c #48FD39",
"z  c #50FC31",
"x  c #71EF2B",
"c  c #66F720",
"v  c #62F822",
"b  c #2FFE4E",
"n  c #3BFE44",
"m  c #33FD4C",
"M  c #38FE48",
"N  c #2CFC55",
"B  c #26FA5D",
"V  c #29FB59",
"C  c #31FD50",
"Z  c #1FF765",
"A  c #1CF56B",
"S  c #0FED7E",
"D  c #14EF77",
"F  c #12EE7C",
"G  c #16F174",
"H  c #19F372",
"J  c #14F079",
"K  c #22F764",
"L  c #22F862",
"P  c #BFBE01",
"I  c #DE9707",
"U  c #DB9C05",
"Y  c #EA840E",
"T  c #E58C0B",
"R  c #E8880D",
"E  c #E09407",
"W  c #E19309",
"Q  c #EA8212",
"!  c #CDAE02",
"~  c #D5A403",
"^  c #D8A104",
"/  c #D1A903",
"(  c #C6B601",
")  c #CAB201",
"_  c #C2BA00",
"`  c #96DF07",
"'  c #9CDB05",
"]  c #ADCD01",
"[  c #B5C701",
"{  c #BAC201",
"}  c #B2CA01",
"|  c #A5D503",
" . c #AAD202",
".. c #A1D804",
"X. c #8DE50A",
"o. c #84EA0E",
"O. c #88E80D",
"+. c #95E007",
"@. c #93E20A",
"#. c #82EC10",
"$. c #3F3EFB",
"%. c #7516EE",
"&. c #7C12EC",
"*. c #671EF4",
"=. c #6B1BF3",
"-. c #7316F0",
";. c #7118F1",
":. c #5C26F7",
">. c #5C26F8",
",. c #542CFA",
"<. c #4737FC",
"1. c #4B33FB",
"2. c #433BFC",
"3. c #5130FB",
"4. c #6321F6",
"5. c #6224F9",
"6. c #3747FC",
"7. c #3B44FC",
"8. c #334CFB",
"9. c #3848FD",
"0. c #245EF7",
"q. c #2C55FA",
"w. c #265CF8",
"e. c #2959F9",
"r. c #3050FB",
"t. c #1576EF",
"y. c #1973EE",
"u. c #127CEC",
"i. c #1F66F6",
"p. c #1B6BF4",
"a. c #1674F1",
"s. c #1871F2",
"d. c #2461ED",
"f. c #2262F7",
"g. c #2363F8",
"h. c #BD01BD",
"j. c #CC168D",
"k. c #DD0796",
"l. c #DF0893",
"z. c #D7049E",
"x. c #DA069A",
"c. c #E60D86",
"v. c #E80F84",
"b. c #E30B8C",
"n. c #EA1180",
"m. c #E00792",
"M. c #E10991",
"N. c #CF02A7",
"B. c #CC02AC",
"V. c #D303A4",
"C. c #D003A8",
"Z. c #C501B5",
"A. c #C902B1",
"S. c #C201B9",
"D. c #8C0DDA",
"F. c #9E05D7",
"G. c #9607DC",
"H. c #9B05D9",
"J. c #9308DF",
"K. c #A802CB",
"L. c #AC02CC",
"P. c #B401C5",
"I. c #B901C1",
"U. c #B100C8",
"Y. c #A304D3",
"T. c #A802D0",
"R. c #860EE6",
"E. c #8B0BE4",
"W. c #830EE8",
"Q. c #9009E1",
"!. c #8111E9",
"~. c #268CBD",
"^. c #00BEBE",
"/. c #06DE97",
"(. c #05DB9B",
"). c #0EEA84",
"_. c #0BE789",
"`. c #0BE58C",
"'. c #10EC81",
"]. c #07E193",
"[. c #09E293",
"{. c #0ACFA4",
"}. c #01CDAD",
"|. c #03D5A4",
" X c #04D9A0",
".X c #02D1A9",
"XX c #00C6B5",
"oX c #01C9B2",
"OX c #00C2BA",
"+X c #0796DE",
"@X c #059BDB",
"#X c #059CD9",
"$X c #01ADCD",
"%X c #00B5C6",
"&X c #00B9C2",
"*X c #01B2C9",
"=X c #03A4D4",
"-X c #02A8D1",
";X c #04A1D8",
":X c #0D87E7",
">X c #0B8CE4",
",X c #0E83E9",
"<X c #1081EB",
"1X c #0794E0",
"2X c #0991E1",
/* pixels */
"u g m B _..X*X>Xp.8.3.*.R.T.S.x.9 r 1 = % O T ~ P } ' ` #.a i f z j k y n n n n y y l j g h p a o.@.| [ ( / W O , = 1 e w l.A.U.",
"f y Z S |.%X+Xp.8.1.-.E.L.Z.k.8 5 - % X R U ( ] ' o.a i g j n m N L Z A A G G H H A K B N M n j h i s @.+.} ( ~ R # * < 2 7 b.B.",
"j N F [.XX;Xu.w.2.*.R.F.h.z.9 r < * # R ~ _ ] ` u i g j n N K K J S _._.`.`.[.[.[._.'.F G A L C n j f d u @. ._ / R # * ; 5 0 l.",
"n A /.}.$X:Xi.$.4.W.L.h.z.9 4   % O U ! { ' o.p g k b V A F `./.|.}.XXXX^.^.^.^.OXXXoX.X|./._.F A V M l g p o.' [ ) E @ , = 2 q ",
"B _.oX&X2Xp.9.>.&.T.S.z.9 5 - > Y ~ _ ] @.a v k m K D _./.}.OX&X$X=X#X+X+X+X>X+X1X+X;X-X*X&XXX.X/._.H L m l h d @. ._ ^ R X = 1 ",
"H /.^.-X<Xe.<.;.J.P.V.b.e 1 * O I (  .+.s f k C A './.|.oX&X$X#X2X:Xu.u.s.p.s.s.t.t.,X>X2X@X-X&XXX|.[.J A N y h a @. .) ~ Y . - ",
"_.}.-X>Xi.$.4.R.L.N.c.7 1 & o I ( | o.d g n L J ]..X^.*X@X>Xu.p.i.q.r.8.6.$.7.7.9.8.q.w.g.p.u.>X;X*XXX|.[.'.K M j p O.| [ ~ Y . ",
"/.^.+Xu.q.1.-.H.S.x.q 5 ; X T ! ] @.p f n V D ].}.&X-X+X<Xs.f.r.7.2.1.3.,.,.,.,.,.1.<.$.9.q.g.s.,X+X-XOX}.[.J L n g d X.| _ I O ",
"}.$Xu.i.$.*.D.P.V.9 5   . R ! } X.p j n K '.(.XX-X1Xu.p.q.6.1.,.*.;.%.&.W.R.R.R.W.&.;.=.4.,.<.9.e.p.,X@X$X^. X_.A b j p #..._ I ",
"OX+Xs.q.3.%.F.h.M.7 < $ + U P ' s h n V F /.XX$X1Xt.0.8.$.,.*.%.&.Q.G.F.Y.Y.T.Y.Y.H.G.R.W.%.4.,.2.q.f.u.>X$XOX|.S Z n g p X.] ) ",
"$X,Xw.$.*.E.h.z.0 2 & X I ( | u h n Z F (.XX=X,Xp.q.<.,.*.&.Q.Y.U.h.S.B.B.N.C.N.B.A.S.P.L.Y.Q.&.*.,.$.q.i.,X;X&X|._.A n j p @.} ",
";Xt.8.<.-.F.h.M.6 < . O ~ [ @.p l V J [.XX-X>Xs.q.<.>.=.R.F.L.h.A.V.x.k.b.b.b.b.M.l.V.N.A.h.L.H.R.;.,.$.8.i.,X=X^.(.F B M h s ' ",
">Xf.2.:.E.U.z.9 2 & O I P ' a j C J /.oX-X:Xi.8.3.=.R.G.U.S.V.l.v.0 6 e r 5 4 4 r e q 9 c.k.V.S.L.H.&.4.,.6.g.u.#XOX XF Z n f o.",
"u.q.,.-.F.S.b.e - . I !  .o.h M H ].XX-X>Xp.6.,.-.E.L.h.V.m.9 6 5 1 < ; = = : : = - < 1 3 6 9 m.V.h.L.E.&.>.$.w.u.@XOX(._.B y i ",
"s.9.4.&.T.B.n.2 & O ~ P ` a l V ).|.%X+Xt.q.1.*.E.L.S.C.b.q 4 1 ; & % > X # # X X % & = - 1 4 0 b.V.h.T.J.%.,.9.p.:X-X}.].H b g ",
"0.<.%.Q.h.x.7 < > T ( ] o.h m H ].&X+Xu.w.2.=.E.L.A.l.9 6 1 = * X O T W I U U U I W R o X * ; 1 r 9 x.A.U.G.&.,.9.p.>X*XXX[.A n ",
"q.,.&.H.S.b.4 ; # U { ..d j B )..X-X,Xp.9.,.!.Y.h.x.8 6 1 = . O T U / ) ( ( _ _ ( ! ~ I R o > = 1 e n.x.A.L.E.=.1.q.u.@X&X|.J N ",
"6.:.E.L.C.9 2 * Y ! | O.v M H ].^.1Xp.r.3.%.F.h.x.8 5 < * # R ~ ( [  ...+.@.@.` ' | ] P ( ~ T o % - 5 w b.N.L.R.*.2.w.,X@XOX/.A ",
"$.=.G.U.z.7 < % W ( ' u g N '..X*X,Xw.7.4.R.L.N.c.r < & # T / P  .' X.#.s a d d u o.@.' ] P / T # * < r 8 x.S.Y.!.,.9.s.>X*X|.'.",
"1.-.Y.h.m.e ; # U [ O.p k K [.OX@Xp.9.3.&.Y.A.b.e < * # E ! ] ` o.p f g j k k l j g v a o.` ] ) U O * < 5 9 z.h.G.;.1.e.s.+XOX].",
",.&.K.A.c.5 $ O /  .#.v n H (.&X>Xf.2.5.R.L.V.9 5 = # R / [ ` u c z k M C V V N m n k h i u ` ] ) I # & < 6 b.B.L.&.:.6.g.>X*X|.",
":.E.P.N.9 2 * R ( ..d g N '.}.=Xt.8.,.%.F.A.c.e - X W ~ [ X.a g n V A G F `._.'.F H B m n g p X. .) I # * 1 7 m.S.F.%.1.9.a.@XXX",
"4.D.h.z.7 < . E P @.c l K `.OX+Xp.$.*.R.U.V.0 1 * Y ! P ` p z m A )./.|.}.XXXXXX}.(.`.F Z b j i O. .) T @ $ 2 0 V.U.E.4.2.w.>X*X",
"=.G.S.x.7   X I [ X.f y A /.&X>Xf.<.%.J.h.k.6   . W P ] u f n K ).(.XX&X*X-X-X$X*XOX.X].).Z m z a ` [ ~ R . < 6 b.S.H.%.,.q.u.-X",
"=.F.A.m.r ; # ~ } o.g M G |.*X,Xq.,.W.Y.A.n.2 : O / ] X.i y K `..X&X@X+Xu.t.t.u.:X+X$XOX}.`.A m g a ' _ ~ O & 2 9 C.L.W.*.2.p.+X",
"%.T.B.b.r = @ ~  .u j m J .X-Xu.8.:.R.T.N.9 2 % R ( ..#.g m D (.^.;X<Xs.f.q.q.e.i.t.>X-X&X|.).K y v O.] ) T % < 7 k.I.Q.-.<.w.>X",
"&.T.C.c.5 $ Q ! | a j N '.oX;Xa.9.*.Q.P.z.7 < . I P X.d k K ].OX@Xt.q.9.1.,.,.,.2.8.f.,X+X%X|.S V l d ' } ~ o = 4 c.B.Y.W.,.q.t.",
"&.K.C.c.5 & Y ) ..a k N '.oX;Xp.7.*.G.P.x.6 - X U [ o.c n G (.*X>Xw.2.,.=.%.&.;.4.1.8.i.u.=XOX[.A n f X. .! Y * 1 9 N.L.E.4.9.t.",
"&.L.V.v.2 & Y ) ..d k B `.XX@Xp.2.;.H.h.l.e ; + /  .u f C '.}.#Xp.2.*.&.F.L.L.Y.E.&.,.9.w.,X$X}.).V j a @.{ I X   7 x.h.F.;.$.i.",
"!.L.z.v.2 & R ) ' p k V `.OX@Xg.2.=.F.h.M.e = O / | a g N `.^.+Xw.,.E.L.N.x.k.N.h.F.&.,.$.i.1X&X/.H n i o.] ~ o = 3 b.S.T.%.1.w.",
"!.L.V.9 2 & Y ) ..p k B _.XX+Xp.2.;.Y.h.M.3 ; O / | a g N _.OX2Xe.:.F.A.c.q 0 b.C.P.J.*.1.q.u.$X.XD m h a | ! Y & 5 n.A.K.W.,.q.",
"&.L.V.v.2 & Y ) ' p k V _.XX+Xp.2.=.H.h.l.3 ; + ~  .u h N ).XX+X0.:.L.j.t = - 5 9 C.L.W.*.7.s.@XXX_.V j p ' ( R % 1 9 C.P.R.,.r.",
"&.L.V.c.5 & Y ) ..d k V ).XX@Xs.7.*.H.P.k.e - + ^ } #.v m D .X;Xy.<.D.j.o Q , < e l.I.E.-.2.f.1X^.[.K k v @.P W , 1 0 V.I.E.5.8.",
"&.T.N.b.5 $ O ! | a j C '.oX=Xa.7.5.J.U.V.q < . I { X.d k K [.OX#Xy.d.~.x [ W , 2 9 B.Y.!.,.q.:X%X/.A y v X.{ W > t q V.S.Q.4.9.",
"-.Y.N.b.5 = O /  .u j m F .X-Xt.8.:.E.T.V.w 1 % T _ ' u g N J |.^.#X$X{.l ` ~ > < q V.T.R.,.r.<X*X XH n h O.[ U #   q x.S.Q.4.9.",
"=.F.B.m.6 - # U } o.g M H  X%X,Xq.,.!.F.A.c.5 = o ~ } ` p l N J `./.).Z z @.( O - 6 z.L.Q.:.8.u.$X|.G n g #.[ U #   7 k.S.G.*.7.",
"=.H.S.x.7 - X U [ X.f y A /.%X>Xf.1.%.Q.h.M.6 - X E _  .#.v y V K H L C v ' / o - 7 z.L.Q.:.8.u.$X|.G n g O.} ^ #   6 x.S.G.*.7.",
"4.Q.h.z.q < > W P +.i j L `.XX+Xp.7.4.R.L.V.9 2 & O ^ ( | o.p g l l g v O.[ ^ >   0 V.L.E.>.q.u.$X|.G n h O.[ U X < 7 k.S.H.*.7.",
",.R.P.B.9 2 * Y ) ..d g N F .X-Xu.r.,.;.H.h.l.7 < * O I ( } +.o.u u #.@.] ! Q * 2 9 B.Y.W.,.q.:X%X(.A y h X.{ I >   q z.h.G.4.9.",
",.!.L.A.v.5 = O /  .u v M H (.%X>Xg.2.5.E.U.V.n.5 ; X Q U ( [  .' .. .} ( I X ; r b.S.G.&.<.0.>X&X/.K y v X.{ W > < q V.h.E.4.9.",
"<.%.Y.h.l.6 - X U [ X.a k B _.XX;Xt.8.<.;.H.h.x.8 5 ; * # R U / ) ! / U R X = 2 w V.U.R.*.7.p.@XOX_.B j p ` _ R , 1 9 N.P.R.>.r.",
"2.=.G.U.z.7 < , T _ ' u g N F .X*X,Xw.7.5.R.L.A.b.7 2 - * X Q R T W R Q X & 1 r M.A.Y.%.>.8.t.;X}.).N g a ' ) R * 2 9 B.U.W.,.q.",
"9.,.E.T.B.9 2 & O ! ] X.c n K [.XX;Xt.w.2.4.E.L.A.M.9 e 1 - $ * , % * :   2 7 b.B.U.W.5.2.g.:X%X(.G M f u  ./ O = 3 b.S.L.&.3.w.",
"q.,.&.F.Z.b.r ; X U { ' a j V '..X$X>Xs.8.,.%.G.U.N.M.v.7 4 1 <   < < 1 5 q b.V.I.Q.;.1.9.s.@XOX`.Z k p O.[ U # ; e M.h.Y.%.<.f.",
"g.2.;.R.P.x.0 1 % R ) [ O.c n K `.XX-X2Xp.8.,.;.Q.L.S.N.k.c.9 7 7 7 q 9 b.x.A.U.Q.%.,.8.f.>X*X|.F N g u ' _ T % < q z.U.J.*.$.p.",
"p.7.4.!.T.N.9 5 : o ~ P ' a j V F |.^.=Xu.0.7.:.%.D.L.U.A.V.x.l.b.M.M.x.V.Z.U.H.!.5.2.g.t.;XOX].A n c X. .! R * 2 9 N.L.E.:.6.t.",
"<Xq.1.=.Q.S.M.7 < > T ~ [ X.i k B ).|.^.;X,Xf.6.,.*.&.E.H.L.P.h.h.S.I.P.L.G.R.;.,.7.g.<X+X&X XJ N j a ' { I X ; r b.S.H.&.,.q.,X",
"1Xp.2.,.W.T.N.n.5 ; # T ! | o.f n K _.(.OX=X>Xp.q.$.,.:.;.&.E.Q.Q.Q.E.E.&.;.>.<.8.g.<X=X&X.X).B l i @.{ ! R * 1 0 z.P.E.*.2.i.1X",
";Xt.r.<.-.F.S.M.6 < % o ^ { +.d j b A S |.^.=X:Xs.e.7.<.3.:.=.=.;.-.=.*.:.,.$.8.i.,X@X&X}.].A m g u ..( U + = 5 v.N.T.&.:.6.s.@X",
"%X>Xf.6.:.W.L.B.v.r ; % Y / [ @.a j m L S (.XX$X+X:Xy.i.q.8.7.2.2.2.2.7.8.q.p.u.>X-XOX(._.A m z a ` P U Q % < q x.I.G.*.3.q.,X$X",
"OX@Xy.q.1.-.F.S.m.7 1 = # E ) | o.i l m Z ).(.XX%X#X>Xu.y.i.w.e.q.e.w.f.p.a.:X+X$XOX|.`.G N k i O.] ) R # = 5 n.C.L.W.:.2.i.2X&X",
"|.*X>Xp.9.:.!.T.A.b.e 1 & o I ( | O.p g n V G `.(.XX&X*X;X+X2X>X,X>X>X2X+X=X*XOX}.].F L m k i O. .( W X * 1 q x.h.G.=.<.q.u.-XoX",
"].^.;X<Xq.1.;.Q.h.z.9 r   , Q ^ P ..o.p g n V H _./..X}.^.*X*X-X-X-X$X$X*X^.}.(.`.J B M l f u ..{ ^ O * - 3 v.N.L.R.>.9.w.>X*X|.",
"F .X%X1Xs.8.,.&.F.h.l.n.3   , O ~ _  .@.s v j n V A S _.].(.|..X.X}..X X(.`.).G L m k h p O.| P ~ O * < 5 9 z.I.G.=.<.w.t.@XOX`.",
"Z `.oX*X>Xg.7.>.W.Y.Z.z.n.4   % O I ) { | O.d f j n m V L A G F F F G G A Z N M l g p #.@.] ( I O %   4 8 x.h.F.-.,.q.y.2X%X(.D ",
"N '.|.OX;X<Xq.<.=.E.L.Z.l.8 2 - > O I / { | @.s p g j k n b N V B V N N m n k z c a O.' ] _ U Y . ; 2 q b.B.L.R.*.2.0.:X;XXX`.A ",
"k L _. X&X+Xa.r.3.;.J.T.S.x.8 3 < * + Y U ) [  .` o.a p v f g j j g g g f i p u X...} ( / W o % - 5 w m.B.U.Q.=.<.e.u.;X&X XG N ",
"g m G `.}.$X>Xg.7.:.&.Q.U.B.l.0 5   * > Q E / _ } ..` X.#.u a a p p d d u o.X.'  .[ ) U T + % ; 2 q M.A.I.G.&.,.6.p.1X*XoX_.K y ",
"p j N A [.XX-X,Xi.7.>.;.D.K.A.x.9 e 1 - * X O W ~ ) P { ]  ...' ' ...... .} { ( / I R + > : < 4 9 l.A.L.G.%.,.7.i.:X$X}./.H m g ",
"#.f n B S  X&X@Xt.e.2.,.-.J.K.A.x.v.r 5 < & > + Y E ^ ~ ) _ P P { { P _ ( ) / I T Q > * = 1 r w l.B.P.G.W.4.2.e.t.;XOX(.'.V k p ",
"' u g y L ). X&X+Xt.w.9.,.=.E.Y.h.C.b.n.6 5 1 = * . + O Y R E E E E W W R Y + X , =   2 4 q c.V.S.L.E.-.:.2.w.u.#X^. XF L y f o.",
"[ X.p g m A `.oX%X1Xa.0.7.,.-.E.Y.h.N.z.b.q 4 1 < = * * % X # # + + # X X . * = - 1 4 6 w b.V.S.L.Q.-.,.2.q.s.2X*X}.`.A C j d ' ",
"!  .O.a z m A `..X%X+X,Xi.9.1.*.!.G.L.I.B.z.b.9 7 3 5 1 <   - ; = ; ; -   1 1 5 e 0 c.k.V.Z.U.F.W.*.,.9.e.t.+X*X}._.A M j p X.} ",
"I )  .@.a j m A _..X&X-X>Xs.q.7.,.*.!.Q.Y.P.S.N.x.b.v.9 q 7 6 r r 6 6 6 6 0 9 c.m.V.B.h.U.F.R.;.:.2.q.p.u.@X&X|.`.Z M z p X.] ! "
};
