/* XPM */
static char *result[] = {
/* columns rows colors chars-per-pixel */
"64 64 84 1 ",
"  c gray6",
". c #161415",
"X c #191617",
"o c #1A1718",
"O c #1D1A1B",
"+ c #221E1F",
"@ c #231F20",
"# c #242122",
"$ c #292526",
"% c #292728",
"& c #2C2A2B",
"* c #312E2F",
"= c #312F30",
"- c #343333",
"; c #393637",
": c #393738",
"> c #3C3A3B",
", c #403E3F",
"< c #413F40",
"1 c #444243",
"2 c #4A4748",
"3 c #4C4A4B",
"4 c #504E4F",
"5 c #524F50",
"6 c #545152",
"7 c #585657",
"8 c #5A5758",
"9 c #5D5B5C",
"0 c #615E5F",
"q c #646263",
"w c #696566",
"e c #6C6A6B",
"r c #706E6F",
"t c #726F70",
"y c #747373",
"u c #787677",
"i c #7A7778",
"p c #7B7A7B",
"a c #807D7E",
"s c #817F80",
"d c #858384",
"f c #888687",
"g c #898788",
"h c #8D8B8C",
"j c #918E8F",
"k c #928F90",
"l c #949293",
"z c #989697",
"x c #9D9B9C",
"c c #A29E9F",
"v c #A4A3A4",
"b c #AAA7A8",
"n c #ACABAB",
"m c #B0AEAF",
"M c #B3AFB0",
"N c #B4B3B4",
"B c #B8B6B7",
"V c #B9B7B8",
"C c #BCBBBB",
"Z c #C0BEBF",
"A c #C1BFC0",
"S c #C4C3C4",
"D c #C9C6C7",
"F c #C9C7C8",
"G c #CCCBCB",
"H c #D1CECF",
"J c #D4D3D4",
"K c #D8D6D7",
"L c #D9D7D8",
"P c #DCDBDC",
"I c #E0DEDF",
"U c #E3DFE0",
"Y c #E4E3E4",
"T c #E8E6E7",
"R c #E9E7E8",
"E c #EEEDED",
"W c #F0EEEF",
"Q c #EEF0EF",
"! c #F1EFF0",
"~ c #EFF1F0",
"^ c #F2F1F2",
"/ c #F8F6F7",
"( c #F9F7F8",
") c #FBF9FA",
/* pixels */
"nNNB%XooOoOO+OoCRRRQEQWQ^^)o++++++++.GREEYRRTYYYPPKJJGFACCNnnvvz",
"NNCC.OOOOOOO++XREE^~Q^^^^)+++@+##@ObEW~^^E^QEQRRTYIPPPJGSSCBNnvv",
"BCCFoOOOOO++++^^^^^^^^^^Y++@O@++OA^QE~^^^^^^Q^QQ~Q/QQRYYPKGSCNNn",
"CZSvOOOO+++++@^^W^^Q^QQ^.#+++++O)^^^^^^^^^^^)L3OoO++@O@OOOO.O>pN",
"ASG6OOO+O++#@#^^^Q^^^^^.++O###8^Q^^^^E^^/T3o+#+++++++@+++OOOOOOo",
"SFGOOOO+++++@^Q^^^^^^!o+++@OOG^E^R^W^^kX++#+++@+++@++++++##OOOOO",
"FGGoOO+++++@X^^^^W^^^/+++++#I^^WEQWED.#+++++++++++++++++#+#@@OOO",
"GGJO++O+++++i^^^^^^^EX@+++$G/^^Q^EWX@##++#+++++++@+@@+#+++O@@@OO",
"HHKo+++@+@@+/Q^^^Q^E8+++#+/E^^^^Eo+++++++++@+#++O+++++++++++++++",
"HKm++++++++X^^^^^^^)#+++OGE^^^Eh+++++++++@##@@@#+#+++++++++++#++",
"HJj++++++++r^^^Q^^^1++++4W^^^^&+O+++++++++#O.o5upw01O.O+#+++++++",
"JL0+o+++@+@^Q^^^^^(#@+#-^/^^WO+++++#++O$S(W^^^^Q^^^^E^^^)G:o@O++",
"KPqO+++@+++/^^^^^^3+@+O)^^^/=++++++++:)^EW^^^^^^^^^QQ^^^QQ^/)0oO",
"LI8O++++#+XQ^^~^^^O++#q^^E~y+++++#O$)^^^^^^QQ^^^^^W^^^^Q^~^^~~~S",
"LP3+@+@++++^^^^Q^D#++#^^~^gO+++++,W^^^^^^^W^^^E^^^^^^^^^^^~^~^^^",
"PY0++++++#1Q^^^^^*+++o^~E)#O#++#N^^^^^^Q^^^^^^^^E^^^Q^^^Q^^^^^Q~",
"PYl+@+@+@+f!Q!^!Q++++B^^^#+++#+J^E^^^^^!)Dq&Ooo$4zE/WE^^^^^^Q^^E",
"YYA+++++@+cW^!^Q/@#@X~^^N++++#(E^~^^/Lo@++#+@O@@++++#Ou^^^^^^^^^",
"YEY+++@++@D^^^~^I@+@%^^Qo##++2^QE^EEO#O@+++##+O+#++++@+#6(^^EQ~W",
"RQ/++@++@@b^!^^^M@@+z^^)#+#OOE^^~/w+###+X$6upq$oOO#O+++#+#2)E^^^",
"RRQ+@@+++$g!^Q~^u+++^^^0++@@^^Q^(O@@@;)^^^^^^Q^^^^P*O++O++++o/WE",
"QQWo@++@+$8!^^^^e+++/QQO@+@#/^^^o+@OEE^~^^^^E^^^^EE^)e+#O@++++e^",
"R^~e++++@@O^!^~^i@++)Q^O++@VEEQ*#@5^E~/Rbw13yS/^^/^^EQ/.@+++##O1",
"Q^Q/@++@@+o/~^^~N+++/Q/++++/^^l+OB^!Y-@+++++++#+XNE^E^^^!+##++++",
"QQ!^X+@+@+@/^^^^Y@@@^^/++++W^^@@9^!jo@@+++++++##+@oA^/^^^/e#+#@O",
"^Q^^2@@+++@D^^^^^@@@P^^+++#^^^@OE^d@+@+++OO+++O+@@@@O(^!^^^DO@@#",
"W^^^)@++++@+^^^^^#@+e^^&++#^^^+e^h@@$x^^^^^^/NO+O++++@=^WW^^^o#O",
"QQ^^Q+@@@+@@/^^!QaO+#QWr+++W^ROb!%+3R^E^^^^^^^/p@+++@++yEW^E~/o#",
"Q!!^Q;@@++@@dW^^^^+#OYQI++#V^^+BD+>E/^PJP^^WE^///o+o++@OqEEW^~)O",
"!^^^^/O++@@oO/!!^^i@@-^^r++-W^;gm$LK4+@+@++4EEQ^^/xO++++#O^W^^^)",
"z^^QQ^a#+++++8WQ^^Qo$+R^R$++d^b,Z3K1dDPGg%+##N^EQ^(f@++@+@8^~~^^",
"@/^^^^/o+@@@@@Q^^^^m$+4Q^D#++j^ggwfnjpBE^^j#O+P^E/(^,+#++++P^^^E",
"+OEE^^^(+##+++>^^E^/N#O-Y^Ru#+-yjiabc3++5EWQ=++l~^~~W2+#++@+^/~^",
"++0/^^E^bo@++++f!E~E^x+#$N/^Pl0icjrrV!9++%RW^+++W~^^W/O+++++o^^~",
"@++P^^^^^>+++++#N!WE^^pOO@2bLYJh3K,A-JW5@+:!~Y$+X^^!W^C+++++@A!^",
"++#O)^Q^^!+++++@@C^~^^^G1#@+@$#6LF$H7q^L++@m~^o+@S!^^~^++++@+o^W",
"+++#O/^^W^W2#+++++*W/E^E^^YDSG!^Y-#Ys#^/u@@+/~F+@O^^!^W<+++#@@uW",
"++++++^^^^^^6#@#++++x^^!^^^^!^^I1+<^tO^~J++OS^^O#@P~!^^!$+++++o~",
"+#+++@&^W^!^/h+O+++@+@VE^^^E^!h%++B!<+!^^@+@6^!$@+>W^~^^o++++++/",
",++++++OY^^/^Q^#++++@#@++@$$#+@@+n!G+#^^^+@@+^!x++O/^^^^r++++++g",
"/w+$+#++OhW^^^^Wvo#++++++@O@@@@#m^^:@1!~/+++O!!J+++(^^^(R@@+++@.",
"^~vO+#++O+&^/^/^!!x@@+@+@@O@@O9E^^u@+J~^U+++O^~!+++!^~^^^+++++++",
"^^^/:O#++++++^^^^E^^^^Nd99iNY!^E^-@@u~^^3O@+@^!E@++J~^^~^.++++++",
"^^~~/,@+++++##p)^/^^^^EE!^!^^!~G#@@$!!!!OO+@3!^Y++@G!^^W^$@+++++",
"^E^^^EEO++++O++O<K/^^^^~!^^^!E$#@##^^^^B@@@@G^~N@@@J~^^^!:+@@@+@",
"^^^^^^^E)*O+++++#+@oO$7q91$O+@@@#M!!^!(#@@@O^!~;o@+!^W^~^2@+++@+",
"^^Q^^^W^^^/2++++@+O#+#+@@+@+@@@$(^^/~~O#@@O<^^^O@@+(^^^^^0@++@++",
"^^^^^W^^^^Q^/FO#++++@@++@@O+@.!/^^~^^U@@@@+^~^/O+++^^^!^!5+@++++",
"E^^^^^^^^Q^E/^W^(Eb8*#O%1fP(!^/~~^!^y@#@@+s!!^4+@@+~~^!^^-+@@@++",
"E^Q^^^^^^^^EQ^^^^^!~^~^!~^^^^^~^^/!5O@@++O^~~~O@+@s^^^^^!+@+++++",
".D^WE^Q^^Q^^^^^^^!^~^^^^^^^^~!!!/)o@@@@++P^~^/++++^~^~^^W.@@@+++",
"+++oJ^^^^^^^^^Q^~^^!^~^~~!^~^^~E.##@@@@@K!^^~##++o/^!^^~^+++++++",
"+++@+OqE^^E^EE^E^!~^^^^^^/^!^)OOOO@@@+@l~!~~QO+#+x~/~~^^/+@@++++",
"++++O+##X1P)E^W^~^^^~^E^/^/fo#@++@+@+#e!Q!!(.@+O+^WW^^^^M+@+@++o",
"+++@+++++++++++o$>971$ooO@@+@+@@@+@O@j^~!~!O@+++x^~^^!^^&@+++++o",
"++++++@+++++#@O#+#O@@++#@@@@@+++++@@K~/!!Qq#++@O~^^^~^~^o@@++++o",
"O+@++++@+@++++#+@++@@++#+++@+++#+@.)^^~^EG+O@@#S!!^^^^~/@@++O+oo",
"@++++@++++@+@++++@++++++++++@++O@/EE/~^^e+@@#@4^^^~^!~^&@@+++ooo",
"O@#@@++++++++++++++@+@++@++++Oo~!!E!E^^h@O@@++~~^^~~~!!+O@O+ooo.",
"OOO@#O#O@+@+#+@+@++@@O@+O+@#oH/^!~^^^^yO+@O@+-~~^~!!~E(O+OOo+ooX",
"C5XO+##++#++++++@@@@@+##od/^Q^^^^^~^/OO@+@O@&~~~!QEEEYw@+oooX...",
"DJIR~n8%..OOO#OOOOo.%d^/^^^~^^^^^~!/o+@++@Oo!Q~~EERYTUoOo+oX...X",
"ZFJPTTEE^!^/)/)))/^~^^E^~^!!~~^RR^iO##++@@O/REEYYYYPKbX+o+.X.. .",
"NCSGJYYYEEEQRE^^~EE~REE~EEEEEEE^9#oO#O@O@.EYIIPPLJJGDo......... "
};
